<?xml version="1.0" encoding="UTF-8" standalone="no"?>
<svg
   xmlns:dc="http://purl.org/dc/elements/1.1/"
   xmlns:cc="http://creativecommons.org/ns#"
   xmlns:rdf="http://www.w3.org/1999/02/22-rdf-syntax-ns#"
   xmlns:svg="http://www.w3.org/2000/svg"
   xmlns="http://www.w3.org/2000/svg"
   xmlns:sodipodi="http://sodipodi.sourceforge.net/DTD/sodipodi-0.dtd"
   xmlns:inkscape="http://www.inkscape.org/namespaces/inkscape"
   version="1.1"
   id="svg2"
   width="433.78317"
   height="433.47247"
   viewBox="0 0 433.78317 433.47247"
   sodipodi:docname="cli.svg"
   inkscape:version="1.0.2 (1.0.2+r75+1)">
  <metadata
     id="metadata8">
    <rdf:RDF>
      <cc:Work
         rdf:about="">
        <dc:format>image/svg+xml</dc:format>
        <dc:type
           rdf:resource="http://purl.org/dc/dcmitype/StillImage" />
        <dc:title />
      </cc:Work>
    </rdf:RDF>
  </metadata>
  <defs
     id="defs6" />
  <sodipodi:namedview
     pagecolor="#ffffff"
     bordercolor="#666666"
     borderopacity="1"
     objecttolerance="10"
     gridtolerance="10"
     guidetolerance="10"
     inkscape:pageopacity="0"
     inkscape:pageshadow="2"
     inkscape:window-width="1280"
     inkscape:window-height="974"
     id="namedview4"
     showgrid="false"
     inkscape:zoom="0.63183594"
     inkscape:cx="84.489292"
     inkscape:cy="11.758645"
     inkscape:window-x="1366"
     inkscape:window-y="25"
     inkscape:window-maximized="1"
     inkscape:current-layer="g10"
     inkscape:document-rotation="0" />
  <g
     inkscape:groupmode="layer"
     inkscape:label="Image"
     id="g10"
     transform="translate(-32.460148,-34.301608)">
    <path
       style="fill:#000000"
       d="m 103.34084,467.45546 c -18.769243,-3.2283 -34.830193,-11.9458 -48.059413,-26.08548 -10.51648,-11.24024 -15.82748,-20.70466 -20.64663,-36.79316 -1.66336,-5.55305 -1.79683,-15.24896 -2.05629,-149.38154 -0.30405,-157.182299 -0.48536,-151.78383 5.62835,-167.58158 8.61765,-22.267885 27.85627,-40.801988 50.40469,-48.558874 4.52611,-1.557028 11.37929,-3.31399 15.229293,-3.904359 4.80937,-0.73748 51.75157,-0.982116 150,-0.781714 157.25041,0.320751 144.9869,-0.152442 160.71729,6.201347 19.38721,7.830838 37.26966,25.760782 45.54964,45.670584 6.59657,15.861946 6.32258,8.176927 6.00394,168.397636 l -0.28837,145 -2.26277,7.315 c -7.37906,23.85473 -23.48731,42.76813 -45.21973,53.09443 -17.34245,8.24038 -2.64936,7.56027 -166.5,7.70698 -80.3,0.0719 -147.125,-0.0628 -148.5,-0.29927 z M 292.54043,236.33791 c 4.93627,-3.06936 7.82183,-8.00697 8.49585,-14.53759 0.66649,-6.45766 -0.93931,-12.085 -4.56607,-16.00128 -5.23485,-5.65274 -5.2921,-5.66072 -40.62937,-5.66072 -35.33968,0 -35.41172,0.01 -40.61394,5.66072 -9.01908,9.79661 -4.7072,28.66291 7.37034,32.24833 1.84188,0.54679 16.85631,0.88255 34.7436,0.77693 30.97376,-0.18287 31.56181,-0.22441 35.19959,-2.48639 z m -178.69959,-5.30224 c 3.35435,-0.91531 9.44771,-6.51816 37.75,-34.71115 18.5625,-18.49082 33.75,-34.0996 33.75,-34.6862 0,-0.5866 -15.1875,-16.17605 -33.75,-34.64324 -31.44908,-31.287609 -34.07699,-33.656209 -38.54634,-34.742799 -6.75172,-1.64149 -12.04317,-0.0376 -17.335243,5.25446 -6.62817,6.628179 -7.84306,14.757049 -3.30763,22.131579 1.01477,1.65 10.632243,11.7617 21.372163,22.47044 l 19.52712,19.47044 -20.81677,21.02956 c -18.194203,18.38017 -20.973833,21.60702 -22.063403,25.61312 -2.40053,8.82625 3.35096,19.20556 12.420103,22.41369 4.91324,1.73801 5.95773,1.77601 11,0.4001 z"
       id="path865" />
    <path
       style="fill:#ffffff;"
       d="m 67.495277,193.66443 c -5.242303,-2.84444 -9.120359,-9.86381 -9.120359,-16.50806 0,-4.15575 3.239952,-8.21071 21.366306,-26.74094 11.751468,-12.01331 21.366306,-22.45455 21.366306,-23.20276 0,-0.7482 -9.614838,-11.06377 -21.366306,-22.92348 C 61.071931,85.447924 58.374918,82.073674 58.374918,77.557652 c 0,-10.267816 8.836253,-19.109672 19.097563,-19.109672 4.600892,0 8.88497,3.707967 39.771899,34.423493 l 34.6156,34.423497 -34.55898,34.42349 c -31.807872,31.68317 -34.993396,34.41845 -40.016099,34.36012 -3.001418,-0.0348 -7.406749,-1.12122 -9.789624,-2.41415 z"
       id="path831"
       transform="translate(32.460148,34.301608)" />
    <path
       style="fill:#ffffff;"
       d="m 188.82169,201.87018 c -5.09106,-2.28009 -10.16238,-10.66731 -10.16238,-16.80705 0,-5.13881 4.67504,-14.07519 8.51542,-16.27729 2.34521,-1.34477 13.51462,-1.92364 37.11672,-1.92364 h 33.76198 l 4.61824,5.16871 c 3.78931,4.24098 4.61824,6.58013 4.61824,13.03222 0,6.45025 -0.82949,8.79244 -4.6154,13.03221 l -4.61539,5.16871 -32.18213,0.39432 c -24.63086,0.3018 -33.32558,-0.11778 -37.0553,-1.78819 z"
       id="path833"
       transform="translate(32.460148,34.301608)" />
  </g>
</svg>
