<?xml version="1.0" encoding="UTF-8" standalone="no"?>
<svg
   xmlns:dc="http://purl.org/dc/elements/1.1/"
   xmlns:cc="http://creativecommons.org/ns#"
   xmlns:rdf="http://www.w3.org/1999/02/22-rdf-syntax-ns#"
   xmlns:svg="http://www.w3.org/2000/svg"
   xmlns="http://www.w3.org/2000/svg"
   xmlns:sodipodi="http://sodipodi.sourceforge.net/DTD/sodipodi-0.dtd"
   xmlns:inkscape="http://www.inkscape.org/namespaces/inkscape"
   version="1.1"
   id="svg2"
   width="1025.5232"
   height="1025.5232"
   viewBox="0 0 1025.5232 1025.5232"
   sodipodi:docname="flask.svg"
   inkscape:version="1.0.2 (1.0.2+r75+1)">
  <metadata
     id="metadata8">
    <rdf:RDF>
      <cc:Work
         rdf:about="">
        <dc:format>image/svg+xml</dc:format>
        <dc:type
           rdf:resource="http://purl.org/dc/dcmitype/StillImage" />
        <dc:title />
      </cc:Work>
    </rdf:RDF>
  </metadata>
  <defs
     id="defs6" />
  <sodipodi:namedview
     pagecolor="#ffffff"
     bordercolor="#666666"
     borderopacity="1"
     objecttolerance="10"
     gridtolerance="10"
     guidetolerance="10"
     inkscape:pageopacity="0"
     inkscape:pageshadow="2"
     inkscape:window-width="1280"
     inkscape:window-height="974"
     id="namedview4"
     showgrid="false"
     inkscape:zoom="0.63121951"
     inkscape:cx="448.4917"
     inkscape:cy="503.54291"
     inkscape:window-x="1366"
     inkscape:window-y="25"
     inkscape:window-maximized="1"
     inkscape:current-layer="g10"
     inkscape:document-rotation="0" />
  <g
     inkscape:groupmode="layer"
     inkscape:label="Image"
     id="g10"
     transform="translate(-64.008301,-8.9570923)">
    <circle
       style="fill:#000000;stroke:#003912"
       id="path35"
       cx="576.7699"
       cy="521.71869"
       r="512.2616" />
    <g
       id="XMLID_155_"
       transform="matrix(2.3715845,0,0,2.3715845,-20.020479,-142.70008)">
      <path
         id="XMLID_200_"
         d="m 194.38423,379.19159 c -10.8,-8.5 -22.4,-16.7 -30.3,-28.2 -16.6,-20.3 -29.4,-43.7 -38.1,-68.4 -5.3,-16 -7.1,-33.2 -13.9,-48.7 -7.1,-11.2 1.2,-23.4 13.5,-27 5.5,-1.1 15.1,-6.2 3.5,-2.5 -10.4,7.6 -11.4,-6.9 -0.7,-7.8 7.3,-1 10,-6.9 7.5,-12.3 -7.8,-5.1 18.9,-10.7 5.5,-18.3 -14,-15.1 19.6,-18 11.3,-0.9 -2,13.2 23.5,-2.4 17.6,12.8 6,7.3 22.5,1.7 22.1,11.9 8.8,0.6 11.8,8 20,8.5 8.5,3.8 24,6.9 26.8,16.5 -8.4,6.7 -28,-13.8 -28.9,4.7 2.6,27.3 1.9,55.5 11.9,81.6 4.7,15.8 16.2,28.2 26.6,40.5 9.9,12 23.3,20.5 37,27.6 12,5.7 24.9,9.4 38,11.8 5.3,-4.1 14.7,-19.1 23,-12.8 0.4,7.2 -16.4,15 -0.8,14.2 9.2,-2.8 15.6,7.1 23.1,-1.8 7,8.3 29,-5.3 24,11.6 -6.7,4.3 -16.5,1.7 -23.2,7.7 -11.1,-5.5 -19.9,4.9 -32.1,3.6 -13.6,2.4 -27.5,3.4 -41.3,3.4 -22.6,-1.8 -45.8,-2.5 -67.3,-10.4 -12.3,-3.5 -24.1,-10.4 -34.8,-17.3 z m 19.2,8.3 c 11.8,5.1 23.4,10.5 36.4,12.2 20.6,2.9 41.9,7.3 62.5,3.3 -9.4,-4.2 -19,1.6 -28.4,-3 -11.2,2.4 -23.2,-0.6 -34.5,-2.1 -12.9,-5.8 -26.9,-9.7 -39,-17.2 -15.1,-5.5 7.8,7.1 11.9,8.1 9.5,5.4 -10.4,-2.8 -13.2,-5 -7.9,-4.4 -8.9,-3.5 -0.8,1 1.7,0.9 3.3,1.9 5.1,2.7 z m -22.6,-15.9 c 11.5,4.3 -0.1,-8.1 -5.3,-7.4 -2.3,-4 -8.9,-6.6 -4.3,-8.8 -8.3,2.9 -8.7,-11 -12.7,-9 -8.8,-2.8 -3.4,-12.7 -14,-18.7 -1,-6.4 -10.4,-11.9 -13.5,-21.6 -1.3,-4.9 -10.7,-19.1 -5,-5.9 4.9,12.7 13.5,23.6 20.7,34.4 5.6,10.3 12.2,21.1 22.3,27.6 3.7,3.3 7,8.3 11.8,9.4 z m 50.6,21.3 c 4.7,3 27.5,6.5 13.2,1.2 -2.4,0.5 -26.4,-6.8 -13.2,-1.2 z m -52,-42.2 c 5.5,4.2 22.3,0.5 8.4,-2.5 -6.3,-3.3 -20.4,-5.6 -10.8,2 z m 26.7,14.2 c 13.5,3.8 -11.3,-8.5 -3.3,-1.4 l 1.8,0.8 z m 0.1,-7.2 c 9.8,1.3 -11.7,-6.7 -2.2,-0.7 z m 34.1,21 c 9.2,-5.5 6.1,12.8 15.5,1.5 9.3,-6.8 -8,8.4 3.4,1.2 8.3,-5.5 20.5,2.6 28.2,5.3 5.5,-0.3 10.9,4.8 16.6,1.7 10.9,-2.9 -21.4,-4.4 -12.9,-9.6 -10,2.9 -17.4,-3.5 -22.3,-9.9 -11.2,-2.6 -24.2,-8.3 -29.8,-18.3 -2.3,-3.7 3.3,0.5 -2,-5.6 -6.8,-6 -10.1,-12.8 -14.7,-20.1 -5.4,-2.9 -6.1,-11.4 -6.6,-0.3 0,-7 -6.5,-11.7 -8.2,-9.8 0,-6.8 7.1,-3.4 2.1,-8.4 -1.1,-7 -4.6,-14.3 -5.6,-22.2 -1.6,-3.8 -0.2,-12 -5.6,-3.3 -2,9.1 -0.6,-11.2 2.4,-4.5 4,-6.8 -1.4,-6 -1.7,-5.1 2.6,-5.8 1.6,-14 -0.7,-10.8 1.4,-6.1 2.2,-22.5 -2.1,-19.6 2.6,-6.4 4.9,-29.3 -6.3,-20.6 -4.5,0.1 -12.4,1.6 -16.1,3.5 11.7,6.4 -1.2,2.3 -5.9,1.3 -0.6,6 -5.3,3.4 -11.2,3.4 9.4,1.2 -4.6,9.6 -10,6.3 -7,3.3 6,11.7 0.1,14.3 0.7,3.9 -10.7,-1.4 -9.8,7.6 -6.8,-2.9 -0.9,10.7 2.5,6.1 11.5,3.1 8.1,10.2 8.4,17 -1.9,3.9 -9.3,-9.3 -1.6,-8.7 -6,-9.8 -6.7,-3.5 -11.7,1 -1.2,0.3 12.8,6.5 4,9.5 7.7,1.2 7.9,7.9 9.5,12.2 4.6,4.8 3.7,-5.3 9.2,0.5 -3.5,-5.2 -18.6,-14.5 -6.4,-11.5 -0.1,-5.2 -2.2,-9.4 1.5,-9.3 3.7,-6.7 -3.9,16.4 4.4,8 2.3,-1 2.9,-6.7 7,0.5 6,5.9 2.2,10.2 -6.3,4.8 1.5,5.1 11.3,7 9.5,15 2,7.1 4.7,4.5 7.1,4 1.9,6.9 2.9,1.8 3,-1.5 8.5,1.8 6.5,6.9 9.2,10.4 5.9,2.7 -8.4,-18 1.7,-6.2 10.6,9.6 4,13.6 -5.6,12.1 6,-0.5 8,8.2 15.5,7.9 6.9,3.3 11.6,15.9 -0.3,10.6 -4.1,-3.7 -18.7,-8.3 -6.8,-1.2 11,5.1 19.7,8.1 30.3,14.5 7.6,5.4 10.9,11.6 13.7,12.8 -6.4,3 -19.2,-2.4 -9.7,-4.1 -6,-1.1 -12.6,-4.1 -6.9,3.3 4.8,4.1 17.2,3.6 19.4,4.1 -1.9,4.1 -5.1,4.5 0.1,4.8 -5.6,3.1 2,3.6 2.5,5.4 z m -11.8,-33.3 c -3.5,-3.7 -4.4,-10.5 -0.6,-4.6 1.9,0.9 6.2,11.3 0.6,4.6 z m -22.4,-37 c -4.2,-9.3 3,-5.1 0.9,1.5 z m -38.5,-25.6 c -1.9,-3.1 -5,-12.1 -4,-14.8 0.9,4.5 9.5,19.3 4.2,6.1 -5.8,-11 7,3.6 8.3,6.3 0.6,2.7 -3.6,-0.7 -0.7,5.7 -5.2,-7.3 -3,4 -7.8,-3.3 z m -19.4,-16.3 c -4.4,-4.4 -7.6,-8.4 0.2,-2.7 3,0.1 -6.7,-9.2 0.7,-3 7.9,1.5 3.9,12.8 -0.9,5.7 z m 2.7,-6.7 c -12.9,-11.4 16.1,6 2.1,2.1 z m 36.8,21.4 c -5.6,-3.3 -1.5,-23.5 0.4,-9.7 5.4,-1.8 -0.3,7.1 3.7,7 -0.5,5.6 -2.4,7.6 -4.1,2.7 z m -34.3,-25.2 c -8.3,-11.4 24,11.5 5.3,2.9 -1.9,-0.5 -4.3,-0.7 -5.3,-2.9 z m 1.3,-4.3 c 4.9,-1.1 20.3,8.6 6.2,2.8 -1.6,-1.8 -5,-1 -6.2,-2.8 z m 42.1,21 c 0.5,-9.8 2.9,-5.9 0,1.4 z m -38.5,-24.4 c 2,-2.9 -5.3,-13.3 1.1,-3.7 2.8,2.2 8,3.7 3.4,4.6 7.2,6.3 -1.8,1.7 -4.5,-0.9 z m 32,-5.3 c -2.6,-4.5 3.2,-19.8 3.9,-10.3 -2.7,7.4 -0.8,11.5 1.1,1.6 3.5,-7.8 -0.7,15.4 -5,8.7 z m 10.6,109.5 c 7.3,1.9 7.3,-1.1 0.7,-2 -3.5,-3.3 -14.8,-6.8 -4.7,-0.4 0.6,1.7 2.7,1.6 4,2.4 z m -25.9,-17.2 c 4,3 15.2,8.5 5.7,1.1 3.2,-3.7 -6.1,-5.7 -3,-8.1 -7.8,-4.8 -6.2,-4.4 -0.7,-4.2 -9.4,-4.2 1.4,-3.9 0.8,-6 -3.6,-0.7 -18,-6.4 -9.5,0.5 -8.6,-4.4 -2,1.6 -4.6,1 -8.8,-2.4 7.8,6.7 -1.4,4.4 5,4 13.6,10.2 2.1,4.2 -1.5,2.2 8.2,5.5 10.6,7.1 z m 91.3,53.5 c 3.9,-3.7 0.2,6 6.4,-0.9 0.1,-4.9 -0.2,-7.8 -7.2,-1.8 -1.9,1.1 -2.8,5.6 0.8,2.7 z m -63.1,-40.5 c 4.3,3.8 19.7,2.8 5.2,0.5 -2.2,-3.2 -13.7,-2.4 -5.2,-0.5 z m -70.7,-47.4 c -6.2,-8.9 -3.9,-12.9 -9.9,-20.1 -1.1,-5.6 -10.3,-18.1 -4.7,-4.8 5.1,7.7 6.6,19.8 14.6,24.9 z m 150.6,90.5 c 6.5,-4.2 -1.5,-3.6 -1.2,0.4 z m 10.5,2.8 c 8.4,-6 -5.1,-1.2 -1.7,1.1 z m -140.2,-89.3 c 6.1,1.4 24.5,15.1 13.6,1 -5.5,-1.6 -2.2,-15.2 -7.9,-12.8 3.8,6.3 3.1,9 -4.8,5 -10,-4.9 -5.6,2.4 -3.7,4.4 -2.6,0.6 3.6,2.3 2.8,2.4 z m -27.9,-22 c 1.1,-4.5 -10.1,-24.9 -5.3,-10.2 1.8,3 1.6,8.9 5.3,10.2 z m 191.6,105.7 c 6.1,-1.2 19.9,3.1 22.1,-1.6 -7.4,-0.2 -25.5,-5.2 -26.3,1.2 l 1.6,0.3 z m -188.8,-131.8 c 6.1,-2.4 -11.1,-5 -1.2,-0.4 z m -19.1,-21.3 c -1.1,-6.3 -1,-17.4 9.6,-13.7 -14.1,2.8 9.8,17.5 6.8,5.9 5.9,0.3 11.6,-3.5 8.5,2.3 11.7,-1.3 19.8,-11.4 31.1,-10 8.8,-1.2 18.4,-2 27.9,-5.6 7.8,-0.6 15.3,-8.9 11,-13.9 -10.6,-0.9 -21.7,0.4 -33.5,2.8 -13,2.7 -24.8,7.8 -37.9,10 -12.8,1.7 2.6,4.7 -1.1,5.4 -6.7,2.3 8,3.9 -0.9,6.3 -5.4,-1 -11.1,-2.9 -8.8,-8.7 -12.3,1.6 -23,6.7 -13.3,19.1 z m 29.6,-15.1 c 2.9,-10.6 15.4,8.7 4.7,1.4 -1.3,-0.9 -3.4,-1.7 -4.7,-1.4 z m 5.8,-5 c 0.4,-4.9 12.1,2.6 1.9,1.8 z m 9,-4.2 c 4.4,-5.3 24.8,-3.4 9.9,-0.5 -4,-3 -7.1,1.8 -9.9,0.5 z m 34.2,-4.1 c 2.8,-7.2 10.7,-2.9 1.3,-1.5 0.2,0.8 -0.3,3.8 -1.3,1.5 z m 177.9,181.6 c 6.6,0 20,-2.1 5.6,-2 -2.2,0.3 -13.1,0.2 -5.6,2 z m -227.4,-144.5 c 5.3,-0.4 8.4,-5.9 -1,-5.6 -14.6,-1.5 12.8,5 -1.9,3.1 -2,1.4 2.8,2.9 2.9,2.5 z m -7.5,-42.1 c 9.5,-3.2 22.6,-6.9 27.1,1.6 -4.6,-5.5 -1.9,-10.9 2.5,-2.9 6.1,8.2 9.2,-3.7 5.2,-6.4 4.5,5.6 9.7,8.3 3,0.4 7.2,-8.7 -14.5,1.1 -19.4,1 -2.4,1 -24.5,5.6 -18.4,6.3 z m 5.6,-10.7 c 5.4,-4.1 18.8,2.4 10.2,-4.1 -0.8,-0.8 -18.8,4.9 -10.2,4.1 z m 19.8,0.8 c 6.4,0.2 -2.7,-8.6 4.8,-4.6 -1.2,-4.1 -8.8,-4.8 -12.5,-6.5 -2.1,3.7 4.3,11.1 7.7,11.1 z m -8.2,-16.1 c 10.3,-1.4 -2.6,-4.4 -2.1,-0.1 z m -15.2,-11.8 c -7.2,-9.4 13.6,1.6 6.2,-8.3 -6.1,-4.9 -12,5.5 -6.2,8.3 z m 92.7,49.9 c 3.3,-5.9 -13.7,-7.9 -2.2,-2.1 1,0.4 0.8,2.5 2.2,2.1 z"
         style="fill:#ffffff" />
    </g>
  </g>
</svg>
