<?xml version="1.0" encoding="UTF-8" standalone="no"?>
<svg
   xmlns:dc="http://purl.org/dc/elements/1.1/"
   xmlns:cc="http://creativecommons.org/ns#"
   xmlns:rdf="http://www.w3.org/1999/02/22-rdf-syntax-ns#"
   xmlns:svg="http://www.w3.org/2000/svg"
   xmlns="http://www.w3.org/2000/svg"
   xmlns:sodipodi="http://sodipodi.sourceforge.net/DTD/sodipodi-0.dtd"
   xmlns:inkscape="http://www.inkscape.org/namespaces/inkscape"
   width="195.62827mm"
   height="260.09177mm"
   viewBox="0 0 195.62826 260.09176"
   version="1.1"
   id="svg8"
   inkscape:version="1.0.2 (1.0.2+r75+1)"
   sodipodi:docname="mcc.svg"
   inkscape:export-filename="/home/neranjana/Documents/marylebone-logo-new-fb2.png"
   inkscape:export-xdpi="120.952"
   inkscape:export-ydpi="120.952">
  <defs
     id="defs2">
    <rect
       x="54.151115"
       y="176.01814"
       width="137.93394"
       height="69.745522"
       id="rect6313" />
    <rect
       x="-201.9558"
       y="215.12125"
       width="227.24396"
       height="69.497971"
       id="rect311" />
    <rect
       x="-201.9558"
       y="215.12125"
       width="227.24396"
       height="69.497971"
       id="rect89" />
    <rect
       x="-201.9558"
       y="215.12125"
       width="202.28188"
       height="102.08751"
       id="rect311-7" />
    <rect
       x="-201.9558"
       y="215.12125"
       width="227.24396"
       height="69.497971"
       id="rect40" />
    <style
       type="text/css"
       id="style5921"><![CDATA[
    .fil0 {fill:#013668}
    .fil1 {fill:#7FCCC1}
   ]]></style>
  </defs>
  <sodipodi:namedview
     id="base"
     pagecolor="#ffffff"
     bordercolor="#666666"
     borderopacity="1.0"
     inkscape:pageopacity="0.0"
     inkscape:pageshadow="2"
     inkscape:zoom="0.35355339"
     inkscape:cx="200.86932"
     inkscape:cy="617.547"
     inkscape:document-units="mm"
     inkscape:current-layer="g92"
     inkscape:document-rotation="0"
     showgrid="false"
     inkscape:window-width="1280"
     inkscape:window-height="974"
     inkscape:window-x="1366"
     inkscape:window-y="25"
     inkscape:window-maximized="1" />
  <metadata
     id="metadata5">
    <rdf:RDF>
      <cc:Work
         rdf:about="">
        <dc:format>image/svg+xml</dc:format>
        <dc:type
           rdf:resource="http://purl.org/dc/dcmitype/StillImage" />
        <dc:title />
      </cc:Work>
    </rdf:RDF>
  </metadata>
  <g
     inkscape:label="Layer 1"
     inkscape:groupmode="layer"
     id="layer1"
     transform="translate(29.377903,-92.05669)">
    <g
       id="g92"
       transform="translate(-0.65672298,6.2230375)">
      <path
         d="m 100.89034,108.29984 c -1.427878,-4.98448 -6.877399,-5.49537 -10.086856,-4.69629 -2.207321,-8.311826 -13.053972,-8.154628 -18.280801,-2.9933 -1.251032,-2.109071 -1.788124,-4.905883 -1.873273,-6.484411 1.591629,0.0786 3.216005,0.301297 4.742134,0.694292 0.589493,-1.237935 0.589493,-3.261856 0,-4.50634 -1.519578,0.392994 -3.150505,0.615693 -4.742134,0.70084 0.08515,-1.591627 0.307845,-3.216006 0.70084,-4.742134 -0.622241,-0.294745 -1.44098,-0.438845 -2.253168,-0.438845 -0.81219,0 -1.630929,0.1441 -2.25317,0.438845 0.392995,1.519578 0.615691,3.150507 0.70084,4.742134 -1.591627,-0.0917 -3.216005,-0.307846 -4.742134,-0.70084 -0.582941,1.244484 -0.582941,3.261855 0,4.50634 1.526129,-0.392995 3.150507,-0.615694 4.742134,-0.694292 -0.08515,1.578528 -0.622241,4.381891 -1.879823,6.484411 -5.226829,-5.161328 -16.07348,-5.318526 -18.2808,2.9933 -3.216006,-0.79908 -8.658983,-0.28819 -10.086861,4.69629 -1.906025,6.64161 5.665672,9.83142 10.643603,16.52545 2.056673,2.76407 2.416916,5.6788 2.672364,7.64377 0.176846,1.38858 0.799089,2.01737 2.449667,2.01737 h 32.05526 c 1.650578,0 2.266268,-0.62879 2.449668,-2.01737 0.248895,-1.95842 0.61569,-4.8797 2.672363,-7.64377 4.984481,-6.69403 12.549617,-9.89039 10.650147,-16.52545 z m -48.082886,18.24808 c -3.065358,-7.63067 -10.381608,-11.88811 -9.268122,-16.30275 0.445394,-1.75538 1.768475,-2.84921 3.798947,-2.90817 1.401682,5.70498 7.984341,10.28337 10.388158,17.96643 -2.11562,0.37335 -3.052257,0.65499 -4.918983,1.24449 z m 8.632781,-1.78813 c -1.277231,-8.23981 -8.953727,-13.29634 -5.626371,-19.30261 1.833974,-3.31425 6.314113,-3.23565 8.848927,-1.63093 -2.259718,7.06081 2.089422,12.03874 2.357968,20.38335 -1.375481,0.0262 -3.890644,0.34714 -5.580524,0.55019 z m 9.739719,-0.55019 c 0.268546,-8.35116 4.611136,-13.32909 2.351417,-20.38335 2.534815,-1.59818 7.014953,-1.68332 8.84893,1.63093 3.333904,6.00627 -4.349142,11.0628 -5.619823,19.30261 -1.696428,-0.20305 -4.211593,-0.52399 -5.580524,-0.55019 z m 14.200204,2.33832 c -1.866723,-0.58295 -2.80336,-0.87114 -4.912433,-1.24449 2.403818,-7.68306 8.986479,-12.26145 10.388159,-17.96642 2.030471,0.0589 3.353555,1.15933 3.798947,2.90816 1.113485,4.41464 -6.202765,8.67208 -9.274673,16.30275 z"
         id="path59"
         style="fill:#e9a920;fill-opacity:1;stroke-width:0.065499" />
      <path
         style="fill:#772332;fill-opacity:1;stroke:#e9a921;stroke-width:3;stroke-linecap:butt;stroke-linejoin:round;stroke-miterlimit:4;stroke-dasharray:none;stroke-opacity:1"
         d="M -27.221193,161.68247 C 3.1277146,145.97381 36.039535,136.74491 69.684326,131.4294 102.84034,137.078 131.78017,144.99561 165.4071,161.68247 159.03822,240.02815 149.63449,298.10964 69.413166,344.42544 -8.9192126,299.20022 -15.506143,247.37232 -27.221193,161.68247 Z"
         id="path6741"
         sodipodi:nodetypes="ccccc" />
      <g
         id="g6222"
         transform="matrix(1.3460719,0,0,1.3460719,-74.412777,70.093267)">
        <g
           id="g6210">
          <g
             id="g6199">
            <path
               d="m 92.280313,61.251029 c -6.815631,0.292425 -12.515358,5.693274 -16.690724,10.057086 -1.073679,1.12221 -2.086329,2.182518 -3.304858,3.376421 -2.756854,2.700962 -5.714933,5.737223 -9.506783,7.182846 -0.806585,0.30752 -1.909639,0.353826 -2.616437,0.732204 0.53365,1.041505 1.555961,1.543833 2.736511,2.099551 1.15151,0.542125 2.873962,0.797184 3.725184,1.238427 -0.323933,2.553201 -3.603403,6.893165 -3.627733,20.213326 -0.0091,4.96165 0.69441,12.63942 -0.310673,17.15562 -0.427206,1.91963 -1.10348,2.94342 -1.756871,4.36229 3.319267,1.40369 6.196956,0.56378 9.506561,0.002 2.94367,6.18267 9.601434,10.90971 15.526419,14.06933 3.730394,1.98934 5.756621,2.92239 9.234331,5.60539 1.819791,1.40394 6.20838,5.54687 7.08319,7.94775 l -1.87847,2.76768 1.26437,0.42675 c 11.73223,2.16395 22.7616,-1.82191 28.0835,-13.17536 1.87584,-4.00182 2.29937,-6.94434 3.24209,-11.53046 0.83261,-0.49045 10.59973,-1.80451 14.98027,-11.59431 1.14858,-2.56683 1.49484,-5.68402 1.14406,-8.56866 -0.17762,-1.46068 -0.43872,-1.28043 0.15486,-2.55852 0.76768,-1.65286 1.20614,-3.40574 1.28542,-5.4795 0.071,-1.85669 1.63776,-2.6085 2.50546,-4.06617 -0.70601,-1.837525 -4.06233,-5.614428 -5.20229,-6.831251 -1.20588,-1.287198 -4.80648,-4.540595 -6.6777,-5.409675 0.12544,-6.770106 -4.38267,-9.059792 -4.58842,-9.641342 -0.20391,-0.576283 3.40605,-11.88105 -9.42046,-17.734379 l 0.078,1.81139 c -2.59185,-0.677647 -3.18885,-1.711826 -8.66103,-2.631328 -11.65616,-1.958521 -16.12475,0.228874 -29.07683,-4.745659 0.26561,1.400059 2.364271,3.571748 2.769093,4.918492"
               style="fill:#e9a921;fill-opacity:1;fill-rule:evenodd;stroke:none;stroke-width:0.185443"
               id="path144" />
            <path
               d="m 99.477365,65.468342 c -3.556913,-0.157757 -5.847192,-1.328516 -10.720176,0.463218 -5.761072,2.118225 -9.269064,7.088233 -13.385867,11.097497 -1.079075,1.050851 -1.981553,1.969444 -3.14443,2.986452 -1.112085,0.972594 -2.477355,1.602712 -3.659778,2.530187 1.689703,0.669395 2.206589,0.406603 3.970655,0.638055 -1.200449,2.704244 -2.168777,3.178441 -3.886501,8.076126 -1.110786,3.167296 -1.729239,6.612516 -2.041896,10.212113 -0.660493,7.6037 1.279317,15.98486 -0.4599,23.04876 2.621333,0.22624 4.585788,-1.19385 5.704994,-2.5295 0.540864,0.58416 0.843489,1.77054 1.221181,2.59778 1.149933,2.51858 3.059312,4.9951 4.870128,6.80933 5.16387,5.17358 12.916083,8.1577 18.891527,12.26146 1.661368,1.14102 2.915149,2.25915 4.220258,3.57044 1.48475,1.49172 2.16364,2.49947 3.47551,4.31533 1.53178,-1.26023 3.42738,-4.09004 4.4037,-6.09787 0.3697,-0.76043 0.58665,-1.80256 0.93354,-2.47274 1.40903,2.08731 0.15827,6.93197 -1.11537,9.53121 -0.45869,0.93606 -1.13107,1.73008 -1.48753,2.62766 12.0407,1.15983 21.53853,-10.992 21.91838,-21.35019 0.0641,-1.74788 -0.55312,-5.40879 0.38667,-6.45187 0.6974,-0.77404 1.79194,-0.65932 2.52667,-0.0211 0.75366,0.65465 0.77378,1.60564 1.32247,2.36424 4.54743,-0.75665 10.27329,-5.45242 11.65879,-10.75623 0.99183,-3.79678 -0.22199,-6.47905 -0.19234,-7.3928 0.0297,-0.91478 1.84368,-2.65835 2.01262,-6.49009 0.0461,-1.04508 -0.20338,-1.75973 0.30709,-2.52105 0.38216,-0.56986 0.9829,-0.9875 1.24336,-1.74179 -3.44107,-5.966929 -6.66429,-6.235599 -11.04576,-9.54667 -1.95915,-1.480523 -1.96399,-2.104391 -0.27187,-3.990682 -0.32687,-3.595874 -4.73973,-5.614275 -5.32852,-6.305051 2.14004,-4.074336 2.17778,-8.901163 -1.46503,-11.280047 -0.0153,1.15787 -0.1055,2.108601 -0.45113,3.110402 -0.3799,1.101217 -0.80716,1.439484 -1.17823,2.138364 -0.27598,-2.673794 0.39468,-5.186698 -3.41561,-7.724878 -4.36019,-2.904505 -12.93175,-3.380278 -18.36051,-3.903524 -3.62005,-0.348893 -6.38631,-0.958148 -9.693336,-1.5677 z"
               style="fill:#772332;fill-opacity:1;fill-rule:evenodd;stroke:none;stroke-width:0.185443"
               id="path146" />
            <path
               d="m 107.85185,78.022031 c 2.20132,0.671954 2.28392,0.501068 4.25095,1.790677 l 1.13288,0.979326 c -2.87152,-0.224145 -5.01559,-0.265777 -7.76878,0.551897 -0.81452,0.241855 -1.61337,0.448643 -2.10676,0.928274 2.2551,0.03811 5.15278,-0.04853 7.0272,0.833697 -1.37124,0.537229 -2.79811,0.350413 -5.41435,1.829007 -4.987678,2.818886 -7.72035,7.123301 -8.390635,13.330679 -0.43913,-2.092096 -1.285084,-3.027045 -0.883525,-6.701974 0.31019,-2.839284 1.186483,-3.92153 2.061924,-6.031188 -1.631196,0.958612 -4.162273,4.378222 -5.212197,6.628501 -5.865588,12.571713 4.492028,24.098253 13.204523,31.087093 1.17806,0.94498 2.0276,1.63071 3.22821,2.70565 6.55685,5.87063 8.92733,10.71711 7.45022,21.3282 1.9428,-0.4995 5.74026,-6.03317 6.75307,-9.27337 1.44478,-4.6224 0.723,-9.54337 -1.0761,-13.494 -1.60211,-3.51819 -4.889,-6.59295 -7.5373,-8.59817 -3.69076,-2.79448 -5.38566,-4.32444 -7.96888,-8.25242 -0.19902,5.2883 2.97605,8.55095 5.61436,11.71956 0.51058,0.61319 0.84192,0.87834 1.45442,1.5106 0.41159,0.42485 0.98194,1.20594 1.3233,1.49089 -3.57783,-1.64312 -8.49397,-6.11838 -10.7315,-9.33003 -1.29852,-1.86375 -2.53924,-4.30857 -3.06764,-6.95099 -0.47815,-2.39083 -0.42752,-7.027891 0.70103,-8.983408 0.61528,0.727364 0.56645,1.520579 2.2612,3.433848 0.83323,0.94063 2.02318,1.90727 3.17512,2.56383 2.34942,1.33909 5.76882,2.43005 8.9071,2.66628 -0.32692,-0.49995 -0.11644,-0.20285 -0.56783,-0.61244 l -1.57409,-1.75809 c -0.62293,-0.96854 -1.12741,-2.12528 -0.87582,-3.496481 2.61976,1.322951 3.53831,2.084791 7.21414,2.364511 2.84258,0.2163 5.81836,0.43781 7.75834,1.98118 -1.76901,0.80453 -4.59259,1.55439 -5.1389,3.13802 2.60468,-0.30569 8.84706,-0.89653 11.12913,-0.007 -3.19595,0.54142 -9.35118,2.06033 -12.00148,3.28394 0.26704,0.96959 0.83014,1.46717 1.5954,2.03205 0.66118,-0.11574 7.06268,-2.38779 8.36444,-2.25562 0.72785,0.0739 0.22941,-0.0739 0.65808,0.21598 -0.8757,0.28902 -5.61998,2.88911 -6.17457,3.41127 3.44316,1.00497 7.67073,-0.17174 10.28018,-1.67111 1.3845,-0.79553 2.80727,-1.76901 3.50773,-2.79006 0.86745,-1.26454 1.70068,-3.03456 1.4792,-4.95299 -1.81522,-1.77996 -2.99108,-1.79919 -5.93329,-2.1876 1.23439,-3.270548 5.23275,-2.713124 7.06937,-2.796592 -1.06342,-2.402361 -15.68176,-9.786006 -16.94058,-12.340022 1.93556,-0.332426 3.32373,1.637036 6.05803,1.175821 -0.12405,-1.883621 -2.88627,-4.041587 -4.15542,-4.938001 -1.85214,-1.308172 -4.10735,-2.291855 -6.90769,-2.54938 l 0.65688,1.744427 C 120.4415,82.417574 113.56553,76.5564 107.85185,78.022106"
               style="fill:#e9a920;fill-opacity:1;fill-rule:evenodd;stroke:none;stroke-width:0.185443"
               id="path152" />
            <path
               d="m 71.687938,114.89927 c 1.503184,-0.35976 2.418217,-1.83094 3.263059,-2.79565 1.322748,4.42685 2.090168,6.78941 4.380484,10.30117 6.488139,9.94823 18.701096,12.33169 23.153159,17.46576 0.59622,0.68754 0.99656,1.47313 1.58315,2.04216 1.5516,-6.60651 0.1187,-11.76645 -4.02197,-16.48345 -3.24568,-3.69737 -9.835887,-6.47038 -13.124092,-15.98471 -0.706595,-2.04459 -0.949822,-3.88913 -1.508396,-5.90312 -1.294356,1.87841 -0.863034,6.51152 -0.298841,8.8243 1.59598,6.54212 7.547928,13.8557 12.253847,18.20464 -1.593774,-0.10192 -5.853868,-3.76349 -6.894519,-4.64274 -6.830412,-5.7709 -11.279121,-15.51286 -11.009394,-25.34007 l 0.233715,-4.213845 c -1.145224,0.40638 -1.585095,2.205847 -2.730726,2.844013 0.09671,-5.428035 1.302164,-9.178401 2.587841,-13.769289 -1.310805,0.290849 -3.582243,3.055641 -4.449969,4.664898 -1.095487,2.031716 -1.835833,4.645743 -2.26467,7.19275 -0.887012,5.268963 -0.960281,12.157063 -1.152678,17.593183"
               style="fill:#e9a920;fill-opacity:1;fill-rule:evenodd;stroke:none;stroke-width:0.185443"
               id="path154" />
            <path
               d="m 84.393228,82.530082 c 0.511471,-0.294725 0.105332,0.0032 0.515996,-0.399556 0.472676,-0.463367 0.245842,-0.442023 1.139214,-1.101255 0.707503,-0.522096 1.17087,-0.756552 2.20759,-0.900308 -0.652203,2.033904 -1.719818,2.44607 -2.690094,7.085748 -0.604786,2.892062 -0.726585,5.947183 -0.289477,8.82936 1.199243,-6.383011 4.436655,-12.842907 9.899441,-16.046902 -0.822088,-0.674161 -2.34543,-0.636219 -3.537163,-0.669117 0.702089,-1.630769 2.261314,-1.876741 3.439323,-2.848111 -0.541791,-0.462792 -1.247458,-0.743868 -2.038577,-0.954346 -0.967327,-0.257321 -1.877372,-0.320706 -2.871774,-0.353826 1.227022,-2.47027 5.111223,-3.172544 8.357982,-2.001525 1.052705,0.379694 1.756201,1.140067 2.767961,0.68931 -1.04966,-2.099569 -7.156939,-4.448875 -11.672425,-2.050427 -3.483218,1.850149 -5.750613,5.219133 -5.227997,10.720955"
               style="fill:#e9a920;fill-opacity:1;fill-rule:evenodd;stroke:none;stroke-width:0.185443"
               id="path156" />
            <path
               d="m 120.56078,79.010499 c 1.96588,-1.657528 1.63655,-2.708491 2.29057,-3.808503 l 1.91259,1.792198 c 0.56562,-4.300521 -1.74899,-7.755662 -5.24331,-8.294467 0.70229,1.857529 1.21734,2.335472 1.16493,4.876322 -0.64084,-0.46116 -0.79238,-0.897768 -1.26606,-1.454413 -1.10895,-1.303221 -2.95902,-3.002066 -4.78287,-3.37566 -1.37657,-0.281966 -3.32242,-0.233288 -4.88712,-0.505314 -1.54089,-0.267891 -3.09334,-0.79633 -4.5438,-1.026428 0.40953,0.875607 2.6915,2.639265 3.54267,3.161473 1.98858,1.220068 2.89616,1.026354 5.19146,1.67598 2.55878,0.724193 4.50848,2.335212 5.67484,4.517508 0.41007,0.767216 0.55795,1.758836 0.9461,2.441304"
               style="fill:#e9a920;fill-opacity:1;fill-rule:evenodd;stroke:none;stroke-width:0.185443"
               id="path158" />
            <path
               d="m 130.3096,120.2884 c 3.1456,-0.0746 5.81492,-0.8961 5.75212,3.04025 3.29013,-0.002 8.10533,-7.06506 4.03583,-10.44962 -0.73651,0.53886 -1.2946,1.2092 -2.33948,1.87522 -2.53843,1.61805 -6.70965,2.83113 -7.44847,5.53415"
               style="fill:#e9a920;fill-opacity:1;fill-rule:evenodd;stroke:none;stroke-width:0.185443"
               id="path160" />
            <path
               d="m 106.37268,90.543287 c 1.82105,0.23288 3.76467,-0.119054 5.54646,0.02492 1.08598,0.08773 2.27298,1.496675 3.71361,2.00262 -0.20354,-1.642174 -0.12848,-2.06734 0.91352,-2.947991 0.7151,0.153083 1.21748,0.758537 1.90127,1.09927 -0.0848,1.26808 0.0876,2.208907 1.16319,2.540665 1.80067,0.555403 1.31685,-0.837127 2.82367,-0.5906 -0.24859,0.777471 -0.26431,0.893002 -1.71798,1.330148 1.27931,0.282652 1.76534,0.01131 2.91135,0.629227 0.88091,0.474938 1.7962,0.710656 2.89699,0.749747 -1.24314,-2.222185 -1.2217,-1.292076 -1.03976,-4.602608 -2.06855,-0.18357 -3.53947,-0.762227 -5.14928,-1.583462 -2.2061,-1.125566 -2.99719,-2.239301 -4.33373,-2.339533 -2.2271,-0.167011 -3.93325,0.183347 -5.69133,1.015153 -1.33914,0.633548 -3.14397,1.754422 -3.93798,2.67244"
               style="fill:#772234;fill-opacity:1;fill-rule:evenodd;stroke:none;stroke-width:0.185443"
               id="path162" />
          </g>
        </g>
      </g>
      <path
         style="fill:none;fill-opacity:1;stroke:none;stroke-width:4.24265;stroke-miterlimit:4;stroke-dasharray:none;stroke-opacity:1"
         d="M 65.699822,317.96934 C 59.914308,314.86302 53.378158,310.01462 46.024556,303.37457 23.112733,282.68598 2.7816971,249.07226 -5.8568916,217.5979 c -3.007468,-10.9576 -5.6905024,-26.22563 -6.9230254,-39.39607 -0.676865,-7.23282 -1.272571,-19.92426 -1.020644,-21.74472 0.328998,-2.37738 0.859316,-2.69711 14.6771231,-8.84878 C 26.6222,136.14641 50.012086,127.11494 62.615823,123.76911 c 4.734639,-1.25687 8.440079,-1.2559 13.335879,0.004 10.86024,2.79364 32.263968,10.95699 55.886938,21.31521 17.80485,7.80708 19.42382,8.72212 20.08366,11.35115 0.5762,2.29574 -0.97126,23.14575 -2.53165,34.11075 -3.17604,22.31837 -8.11205,38.88931 -16.99718,57.06204 -10.01346,20.48049 -21.89595,36.99944 -37.828108,52.58831 -6.83681,6.6895 -11.84978,10.93899 -17.16953,14.55459 -3.01496,2.04913 -7.99937,4.91013 -8.50186,4.87999 -0.0573,-0.003 -1.49469,-0.75282 -3.19415,-1.66528 z m 16.7474,-59.50317 c 1.33769,-0.34801 3.77919,-1.29565 5.42557,-2.10587 8.52907,-4.19737 13.835658,-11.85673 16.082488,-23.21294 0.88689,-4.48262 0.78499,-4.30306 2.718,-4.7898 7.07813,-1.78229 13.73514,-7.39295 16.44542,-13.86053 0.91825,-2.19123 1.0272,-2.93251 1.09997,-7.48354 0.0577,-3.60815 0.24929,-5.44938 0.67061,-6.44435 0.32442,-0.76612 0.78034,-2.67366 1.01315,-4.23899 0.35978,-2.41899 0.64505,-3.12657 1.90116,-4.71567 l 1.47787,-1.86964 -1.02285,-1.56201 c -2.78026,-4.24578 -8.33014,-9.93536 -12.17847,-12.48502 -1.23211,-0.81632 -1.37064,-1.08651 -1.55419,-3.03141 -0.26928,-2.85335 -1.39414,-5.31975 -3.40824,-7.47298 l -1.66161,-1.7764 0.004,-3.92646 c 0.006,-5.03154 -0.88859,-8.03736 -3.36066,-11.29737 -1.7036,-2.2466 -5.89287,-5.49575 -7.843568,-6.08338 -0.72032,-0.21699 -0.8419,-0.11489 -0.8419,0.70705 0,0.52836 -0.0875,0.96066 -0.19452,0.96066 -0.10699,0 -1.24355,-0.42631 -2.5257,-0.94734 -4.3498,-1.76766 -9.09411,-2.48469 -23.43787,-3.54229 -5.99543,-0.44206 -10.691454,-1.34734 -15.605328,-3.00834 -1.803032,-0.60946 -3.330847,-1.10811 -3.395144,-1.10811 -0.434057,0 0.09984,1.21593 1.431028,3.25911 0.851358,1.30671 1.482781,2.42157 1.403165,2.47745 -0.07962,0.0559 -1.149919,0.3023 -2.378448,0.54759 -2.908022,0.58064 -6.884244,2.50171 -9.921978,4.79372 -1.334884,1.00718 -5.291809,4.70585 -8.793168,8.21925 -3.501358,3.51341 -7.283457,7.10589 -8.404661,7.9833 -2.438122,1.90798 -5.66646,3.5777 -7.596516,3.92899 -0.771739,0.14047 -1.403164,0.31818 -1.403164,0.39493 0,1.22492 1.793983,2.431 5.287433,3.5547 l 2.481104,0.79806 -1.418312,4.37854 c -2.504676,7.73233 -2.764409,10.08565 -2.816564,25.51957 -0.04915,14.54427 -0.136194,15.34872 -2.072066,19.14961 l -0.700916,1.37618 1.368325,0.45158 c 1.380712,0.45568 8.248721,0.31275 9.519372,-0.1981 0.440513,-0.1771 0.848228,0.15117 1.466498,1.18076 3.649768,6.07784 9.601867,11.02207 20.121488,16.71431 2.536484,1.37251 5.621891,3.18142 6.856455,4.0198 2.987484,2.02876 7.17292,5.99853 9.168007,8.6956 l 1.6166,2.18542 -1.15833,1.68358 c -0.64342,0.93517 -1.0153,1.82497 -0.83656,2.00164 1.2133,1.19924 12.59004,1.31932 16.97268,0.17914 z"
         id="path6271" />
      <path
         style="fill:none;fill-opacity:1;stroke:none;stroke-width:4.24265;stroke-miterlimit:4;stroke-dasharray:none;stroke-opacity:1"
         d="M 65.699822,317.96934 C 59.914308,314.86302 53.378158,310.01462 46.024556,303.37457 23.112733,282.68598 2.7816971,249.07226 -5.8568916,217.5979 c -3.007468,-10.9576 -5.6905024,-26.22563 -6.9230254,-39.39607 -0.676865,-7.23282 -1.272571,-19.92426 -1.020644,-21.74472 0.328998,-2.37738 0.859316,-2.69711 14.6771231,-8.84878 C 26.6222,136.14641 50.012086,127.11494 62.615823,123.76911 c 4.734639,-1.25687 8.440079,-1.2559 13.335879,0.004 10.86024,2.79364 32.263968,10.95699 55.886938,21.31521 17.80485,7.80708 19.42382,8.72212 20.08366,11.35115 0.5762,2.29574 -0.97126,23.14575 -2.53165,34.11075 -3.17604,22.31837 -8.11205,38.88931 -16.99718,57.06204 -10.01346,20.48049 -21.89595,36.99944 -37.828108,52.58831 -6.83681,6.6895 -11.84978,10.93899 -17.16953,14.55459 -3.01496,2.04913 -7.99937,4.91013 -8.50186,4.87999 -0.0573,-0.003 -1.49469,-0.75282 -3.19415,-1.66528 z m 16.7474,-59.50317 c 1.33769,-0.34801 3.77919,-1.29565 5.42557,-2.10587 8.52907,-4.19737 13.835658,-11.85673 16.082488,-23.21294 0.88689,-4.48262 0.78499,-4.30306 2.718,-4.7898 7.07813,-1.78229 13.73514,-7.39295 16.44542,-13.86053 0.91825,-2.19123 1.0272,-2.93251 1.09997,-7.48354 0.0577,-3.60815 0.24929,-5.44938 0.67061,-6.44435 0.32442,-0.76612 0.78034,-2.67366 1.01315,-4.23899 0.35978,-2.41899 0.64505,-3.12657 1.90116,-4.71567 l 1.47787,-1.86964 -1.02285,-1.56201 c -2.78026,-4.24578 -8.33014,-9.93536 -12.17847,-12.48502 -1.23211,-0.81632 -1.37064,-1.08651 -1.55419,-3.03141 -0.26928,-2.85335 -1.39414,-5.31975 -3.40824,-7.47298 l -1.66161,-1.7764 0.004,-3.92646 c 0.006,-5.03154 -0.88859,-8.03736 -3.36066,-11.29737 -1.7036,-2.2466 -5.89287,-5.49575 -7.843568,-6.08338 -0.72032,-0.21699 -0.8419,-0.11489 -0.8419,0.70705 0,0.52836 -0.0875,0.96066 -0.19452,0.96066 -0.10699,0 -1.24355,-0.42631 -2.5257,-0.94734 -4.3498,-1.76766 -9.09411,-2.48469 -23.43787,-3.54229 -5.99543,-0.44206 -10.691454,-1.34734 -15.605328,-3.00834 -1.803032,-0.60946 -3.330847,-1.10811 -3.395144,-1.10811 -0.434057,0 0.09984,1.21593 1.431028,3.25911 0.851358,1.30671 1.482781,2.42157 1.403165,2.47745 -0.07962,0.0559 -1.149919,0.3023 -2.378448,0.54759 -2.908022,0.58064 -6.884244,2.50171 -9.921978,4.79372 -1.334884,1.00718 -5.291809,4.70585 -8.793168,8.21925 -3.501358,3.51341 -7.283457,7.10589 -8.404661,7.9833 -2.438122,1.90798 -5.66646,3.5777 -7.596516,3.92899 -0.771739,0.14047 -1.403164,0.31818 -1.403164,0.39493 0,1.22492 1.793983,2.431 5.287433,3.5547 l 2.481104,0.79806 -1.418312,4.37854 c -2.504676,7.73233 -2.764409,10.08565 -2.816564,25.51957 -0.04915,14.54427 -0.136194,15.34872 -2.072066,19.14961 l -0.700916,1.37618 1.368325,0.45158 c 1.380712,0.45568 8.248721,0.31275 9.519372,-0.1981 0.440513,-0.1771 0.848228,0.15117 1.466498,1.18076 3.649768,6.07784 9.601867,11.02207 20.121488,16.71431 2.536484,1.37251 5.621891,3.18142 6.856455,4.0198 2.987484,2.02876 7.17292,5.99853 9.168007,8.6956 l 1.6166,2.18542 -1.15833,1.68358 c -0.64342,0.93517 -1.0153,1.82497 -0.83656,2.00164 1.2133,1.19924 12.59004,1.31932 16.97268,0.17914 z"
         id="path6273" />
      <path
         style="fill:none;fill-opacity:1;stroke:none;stroke-width:4.24265;stroke-miterlimit:4;stroke-dasharray:none;stroke-opacity:1"
         d="M 65.699822,317.96934 C 59.914308,314.86302 53.378158,310.01462 46.024556,303.37457 23.112733,282.68598 2.7816971,249.07226 -5.8568916,217.5979 c -3.007468,-10.9576 -5.6905024,-26.22563 -6.9230254,-39.39607 -0.676865,-7.23282 -1.272571,-19.92426 -1.020644,-21.74472 0.328998,-2.37738 0.859316,-2.69711 14.6771231,-8.84878 C 26.6222,136.14641 50.012086,127.11494 62.615823,123.76911 c 4.734639,-1.25687 8.440079,-1.2559 13.335879,0.004 10.86024,2.79364 32.263968,10.95699 55.886938,21.31521 17.80485,7.80708 19.42382,8.72212 20.08366,11.35115 0.5762,2.29574 -0.97126,23.14575 -2.53165,34.11075 -3.17604,22.31837 -8.11205,38.88931 -16.99718,57.06204 -10.01346,20.48049 -21.89595,36.99944 -37.828108,52.58831 -6.83681,6.6895 -11.84978,10.93899 -17.16953,14.55459 -3.01496,2.04913 -7.99937,4.91013 -8.50186,4.87999 -0.0573,-0.003 -1.49469,-0.75282 -3.19415,-1.66528 z m 16.7474,-59.50317 c 1.33769,-0.34801 3.77919,-1.29565 5.42557,-2.10587 8.52907,-4.19737 13.835658,-11.85673 16.082488,-23.21294 0.88689,-4.48262 0.78499,-4.30306 2.718,-4.7898 7.07813,-1.78229 13.73514,-7.39295 16.44542,-13.86053 0.91825,-2.19123 1.0272,-2.93251 1.09997,-7.48354 0.0577,-3.60815 0.24929,-5.44938 0.67061,-6.44435 0.32442,-0.76612 0.78034,-2.67366 1.01315,-4.23899 0.35978,-2.41899 0.64505,-3.12657 1.90116,-4.71567 l 1.47787,-1.86964 -1.02285,-1.56201 c -2.78026,-4.24578 -8.33014,-9.93536 -12.17847,-12.48502 -1.23211,-0.81632 -1.37064,-1.08651 -1.55419,-3.03141 -0.26928,-2.85335 -1.39414,-5.31975 -3.40824,-7.47298 l -1.66161,-1.7764 0.004,-3.92646 c 0.006,-5.03154 -0.88859,-8.03736 -3.36066,-11.29737 -1.7036,-2.2466 -5.89287,-5.49575 -7.843568,-6.08338 -0.72032,-0.21699 -0.8419,-0.11489 -0.8419,0.70705 0,0.52836 -0.0875,0.96066 -0.19452,0.96066 -0.10699,0 -1.24355,-0.42631 -2.5257,-0.94734 -4.3498,-1.76766 -9.09411,-2.48469 -23.43787,-3.54229 -5.99543,-0.44206 -10.691454,-1.34734 -15.605328,-3.00834 -1.803032,-0.60946 -3.330847,-1.10811 -3.395144,-1.10811 -0.434057,0 0.09984,1.21593 1.431028,3.25911 0.851358,1.30671 1.482781,2.42157 1.403165,2.47745 -0.07962,0.0559 -1.149919,0.3023 -2.378448,0.54759 -2.908022,0.58064 -6.884244,2.50171 -9.921978,4.79372 -1.334884,1.00718 -5.291809,4.70585 -8.793168,8.21925 -3.501358,3.51341 -7.283457,7.10589 -8.404661,7.9833 -2.438122,1.90798 -5.66646,3.5777 -7.596516,3.92899 -0.771739,0.14047 -1.403164,0.31818 -1.403164,0.39493 0,1.22492 1.793983,2.431 5.287433,3.5547 l 2.481104,0.79806 -1.418312,4.37854 c -2.504676,7.73233 -2.764409,10.08565 -2.816564,25.51957 -0.04915,14.54427 -0.136194,15.34872 -2.072066,19.14961 l -0.700916,1.37618 1.368325,0.45158 c 1.380712,0.45568 8.248721,0.31275 9.519372,-0.1981 0.440513,-0.1771 0.848228,0.15117 1.466498,1.18076 3.649768,6.07784 9.601867,11.02207 20.121488,16.71431 2.536484,1.37251 5.621891,3.18142 6.856455,4.0198 2.987484,2.02876 7.17292,5.99853 9.168007,8.6956 l 1.6166,2.18542 -1.15833,1.68358 c -0.64342,0.93517 -1.0153,1.82497 -0.83656,2.00164 1.2133,1.19924 12.59004,1.31932 16.97268,0.17914 z"
         id="path6275" />
      <path
         style="fill:none;fill-opacity:1;stroke:none;stroke-width:4.24265;stroke-miterlimit:4;stroke-dasharray:none;stroke-opacity:1"
         d="M 65.699822,317.96934 C 59.914308,314.86302 53.378158,310.01462 46.024556,303.37457 23.112733,282.68598 2.7816971,249.07226 -5.8568916,217.5979 c -3.007468,-10.9576 -5.6905024,-26.22563 -6.9230254,-39.39607 -0.676865,-7.23282 -1.272571,-19.92426 -1.020644,-21.74472 0.328998,-2.37738 0.859316,-2.69711 14.6771231,-8.84878 C 26.6222,136.14641 50.012086,127.11494 62.615823,123.76911 c 4.734639,-1.25687 8.440079,-1.2559 13.335879,0.004 10.86024,2.79364 32.263968,10.95699 55.886938,21.31521 17.80485,7.80708 19.42382,8.72212 20.08366,11.35115 0.5762,2.29574 -0.97126,23.14575 -2.53165,34.11075 -3.17604,22.31837 -8.11205,38.88931 -16.99718,57.06204 -10.01346,20.48049 -21.89595,36.99944 -37.828108,52.58831 -6.83681,6.6895 -11.84978,10.93899 -17.16953,14.55459 -3.01496,2.04913 -7.99937,4.91013 -8.50186,4.87999 -0.0573,-0.003 -1.49469,-0.75282 -3.19415,-1.66528 z m 16.7474,-59.50317 c 1.33769,-0.34801 3.77919,-1.29565 5.42557,-2.10587 8.52907,-4.19737 13.835658,-11.85673 16.082488,-23.21294 0.88689,-4.48262 0.78499,-4.30306 2.718,-4.7898 7.07813,-1.78229 13.73514,-7.39295 16.44542,-13.86053 0.91825,-2.19123 1.0272,-2.93251 1.09997,-7.48354 0.0577,-3.60815 0.24929,-5.44938 0.67061,-6.44435 0.32442,-0.76612 0.78034,-2.67366 1.01315,-4.23899 0.35978,-2.41899 0.64505,-3.12657 1.90116,-4.71567 l 1.47787,-1.86964 -1.02285,-1.56201 c -2.78026,-4.24578 -8.33014,-9.93536 -12.17847,-12.48502 -1.23211,-0.81632 -1.37064,-1.08651 -1.55419,-3.03141 -0.26928,-2.85335 -1.39414,-5.31975 -3.40824,-7.47298 l -1.66161,-1.7764 0.004,-3.92646 c 0.006,-5.03154 -0.88859,-8.03736 -3.36066,-11.29737 -1.7036,-2.2466 -5.89287,-5.49575 -7.843568,-6.08338 -0.72032,-0.21699 -0.8419,-0.11489 -0.8419,0.70705 0,0.52836 -0.0875,0.96066 -0.19452,0.96066 -0.10699,0 -1.24355,-0.42631 -2.5257,-0.94734 -4.3498,-1.76766 -9.09411,-2.48469 -23.43787,-3.54229 -5.99543,-0.44206 -10.691454,-1.34734 -15.605328,-3.00834 -1.803032,-0.60946 -3.330847,-1.10811 -3.395144,-1.10811 -0.434057,0 0.09984,1.21593 1.431028,3.25911 0.851358,1.30671 1.482781,2.42157 1.403165,2.47745 -0.07962,0.0559 -1.149919,0.3023 -2.378448,0.54759 -2.908022,0.58064 -6.884244,2.50171 -9.921978,4.79372 -1.334884,1.00718 -5.291809,4.70585 -8.793168,8.21925 -3.501358,3.51341 -7.283457,7.10589 -8.404661,7.9833 -2.438122,1.90798 -5.66646,3.5777 -7.596516,3.92899 -0.771739,0.14047 -1.403164,0.31818 -1.403164,0.39493 0,1.22492 1.793983,2.431 5.287433,3.5547 l 2.481104,0.79806 -1.418312,4.37854 c -2.504676,7.73233 -2.764409,10.08565 -2.816564,25.51957 -0.04915,14.54427 -0.136194,15.34872 -2.072066,19.14961 l -0.700916,1.37618 1.368325,0.45158 c 1.380712,0.45568 8.248721,0.31275 9.519372,-0.1981 0.440513,-0.1771 0.848228,0.15117 1.466498,1.18076 3.649768,6.07784 9.601867,11.02207 20.121488,16.71431 2.536484,1.37251 5.621891,3.18142 6.856455,4.0198 2.987484,2.02876 7.17292,5.99853 9.168007,8.6956 l 1.6166,2.18542 -1.15833,1.68358 c -0.64342,0.93517 -1.0153,1.82497 -0.83656,2.00164 1.2133,1.19924 12.59004,1.31932 16.97268,0.17914 z"
         id="path6277" />
      <text
         xml:space="preserve"
         id="text6311"
         style="font-size:16.9333px;line-height:0.95;font-family:Consolas;-inkscape-font-specification:Consolas;text-align:center;white-space:pre;shape-inside:url(#rect6313);"
         transform="matrix(0.77086616,0.00263144,-0.00263144,0.77086616,-25.327593,153.28679)"><tspan
           x="64.709974"
           y="188.95512"><tspan
             style="font-style:normal;font-variant:normal;font-weight:bold;font-stretch:normal;font-size:16.9333px;font-family:Rubik;-inkscape-font-specification:'Rubik Bold';fill:#ffffff">MARYLEBONE
</tspan></tspan><tspan
           x="86.279804"
           y="205.82667"><tspan
             style="font-style:normal;font-variant:normal;font-weight:bold;font-stretch:normal;font-size:16.9333px;font-family:Rubik;-inkscape-font-specification:'Rubik Bold';fill:#ffffff">CRICKET
</tspan></tspan><tspan
           x="100.13444"
           y="222.69822"><tspan
             style="font-style:normal;font-variant:normal;font-weight:bold;font-stretch:normal;font-size:16.9333px;font-family:Rubik;-inkscape-font-specification:'Rubik Bold';fill:#ffffff">CLUB</tspan></tspan></text>
    </g>
  </g>
</svg>
