<?xml version="1.0" encoding="UTF-8" standalone="no"?>
<svg
   xmlns:dc="http://purl.org/dc/elements/1.1/"
   xmlns:cc="http://creativecommons.org/ns#"
   xmlns:rdf="http://www.w3.org/1999/02/22-rdf-syntax-ns#"
   xmlns:svg="http://www.w3.org/2000/svg"
   xmlns="http://www.w3.org/2000/svg"
   xmlns:sodipodi="http://sodipodi.sourceforge.net/DTD/sodipodi-0.dtd"
   xmlns:inkscape="http://www.inkscape.org/namespaces/inkscape"
   version="1.1"
   id="Layer_1"
   x="0px"
   y="0px"
   viewBox="0 0 512 512"
   style="enable-background:new 0 0 512 512;"
   xml:space="preserve"
   sodipodi:docname="Spotify-08.svg"
   inkscape:version="1.0.2 (1.0.2+r75+1)"><metadata
   id="metadata13"><rdf:RDF><cc:Work
       rdf:about=""><dc:format>image/svg+xml</dc:format><dc:type
         rdf:resource="http://purl.org/dc/dcmitype/StillImage" /></cc:Work></rdf:RDF></metadata><defs
   id="defs11" /><sodipodi:namedview
   pagecolor="#ffffff"
   bordercolor="#666666"
   borderopacity="1"
   objecttolerance="10"
   gridtolerance="10"
   guidetolerance="10"
   inkscape:pageopacity="0"
   inkscape:pageshadow="2"
   inkscape:window-width="1280"
   inkscape:window-height="974"
   id="namedview9"
   showgrid="false"
   inkscape:zoom="1.2636719"
   inkscape:cx="256"
   inkscape:cy="255.20866"
   inkscape:window-x="1366"
   inkscape:window-y="25"
   inkscape:window-maximized="1"
   inkscape:current-layer="Layer_1" />
<style
   type="text/css"
   id="style2">
	.st0{fill-rule:evenodd;clip-rule:evenodd;fill:#1ED760;}
</style>
<g
   id="g6">
	<path
   class="st0"
   d="M407.4,226.9c-82.5-49-218.6-53.5-297.4-29.6c-12.6,3.8-26-3.3-29.9-15.9c-3.8-12.7,3.3-26,16-29.9   c90.4-27.4,240.8-22.1,335.8,34.3c11.4,6.8,15.1,21.4,8.4,32.8C433.5,230,418.8,233.7,407.4,226.9 M404.7,299.5   c-5.8,9.4-18.1,12.3-27.4,6.6c-68.8-42.3-173.7-54.5-255.1-29.8c-10.6,3.2-21.7-2.8-24.9-13.3c-3.2-10.6,2.8-21.7,13.3-24.9   c93-28.2,208.6-14.6,287.6,34C407.5,277.9,410.5,290.2,404.7,299.5 M373.4,369.2c-4.6,7.5-14.4,9.9-21.9,5.3   c-60.1-36.7-135.8-45-224.9-24.7c-8.6,2-17.1-3.4-19.1-12c-2-8.6,3.4-17.1,12-19.1c97.5-22.3,181.2-12.7,248.6,28.5   C375.6,351.9,378,361.7,373.4,369.2 M256,0C114.6,0,0,114.6,0,256c0,141.4,114.6,256,256,256s256-114.6,256-256   C512,114.6,397.4,0,256,0"
   id="path4" />
</g>
<path
   style="fill:#000000;stroke:#003912;stroke-width:0.791345"
   d="m 415.53723,229.41235 c -1.91388,-0.36906 -5.47493,-1.7518 -7.91345,-3.07278 -26.94705,-14.59751 -48.14013,-22.90643 -76.57659,-30.02246 -69.05252,-17.27992 -148.08584,-17.98114 -211.86915,-1.87981 -15.77248,3.98158 -19.726186,4.15635 -25.943038,1.14683 -11.526144,-5.57972 -16.692777,-19.12713 -11.556233,-30.30158 4.252898,-9.25209 8.469162,-11.91829 26.005361,-16.44473 20.99681,-5.41969 41.23067,-8.79772 67.59871,-11.28557 17.18488,-1.62141 73.78958,-1.37986 91.40031,0.39003 62.39522,6.27077 114.66093,20.73232 155.77608,43.10213 11.66745,6.34799 14.86191,8.93184 17.86563,14.45066 9.16289,16.83526 -5.97259,37.54536 -24.78763,33.91728 z"
   id="path15" /><path
   style="fill:#000000;stroke:#003912;stroke-width:0.791345"
   d="m 381.8238,307.64726 c -1.30572,-0.46872 -6.0996,-2.99373 -10.65309,-5.61113 -33.11864,-19.03708 -76.44803,-32.09867 -123.08416,-37.10358 -14.88164,-1.59707 -59.68278,-1.33589 -73.99072,0.43135 -14.86903,1.83654 -29.82669,4.61371 -41.61609,7.72682 -15.69383,4.14411 -16.19701,4.20921 -21.22881,2.74642 -14.178714,-4.12186 -18.983736,-20.96626 -9.05383,-31.73894 3.87505,-4.20393 7.53534,-5.6749 24.56695,-9.87282 25.21936,-6.21602 48.83992,-9.26977 77.40287,-10.00692 67.77533,-1.74914 135.85907,14.53478 188.12424,44.99457 11.53135,6.7204 14.69583,11.02572 14.71754,20.02345 0.0306,12.66714 -13.54313,22.58985 -25.1849,18.41078 z"
   id="path17" /><path
   style="fill:#000000;stroke:#003912;stroke-width:0.791345"
   d="m 355.93668,375.93163 c -1.18073,-0.3749 -5.34028,-2.50915 -9.24345,-4.74276 -28.25534,-16.16929 -59.48834,-26.23979 -95.05032,-30.6472 -8.76623,-1.08645 -17.15895,-1.42118 -35.60582,-1.42005 -30.00779,0.002 -47.97073,1.82264 -78.0391,7.91043 -15.3859,3.11511 -16.65027,3.20782 -20.69576,1.51751 -8.41013,-3.51398 -12.19608,-13.71762 -7.88581,-21.25331 3.36142,-5.87682 6.24068,-7.40988 18.85002,-10.03671 89.21248,-18.5851 164.81187,-10.67747 228.24624,23.87437 12.87011,7.01017 14.83291,8.51208 17.01498,13.01963 3.49715,7.22416 0.56515,16.62784 -6.272,20.11589 -3.72963,1.90272 -8.40102,2.58871 -11.31898,1.6622 z"
   id="path19" /></svg>
