<?xml version="1.0" encoding="UTF-8" standalone="no"?>
<svg
   xmlns:dc="http://purl.org/dc/elements/1.1/"
   xmlns:cc="http://creativecommons.org/ns#"
   xmlns:rdf="http://www.w3.org/1999/02/22-rdf-syntax-ns#"
   xmlns:svg="http://www.w3.org/2000/svg"
   xmlns="http://www.w3.org/2000/svg"
   xmlns:sodipodi="http://sodipodi.sourceforge.net/DTD/sodipodi-0.dtd"
   xmlns:inkscape="http://www.inkscape.org/namespaces/inkscape"
   version="1.1"
   id="Layer_1"
   x="0px"
   y="0px"
   viewBox="0 0 512 512"
   style="enable-background:new 0 0 512 512;"
   xml:space="preserve"
   sodipodi:docname="Trakt-01.svg"
   inkscape:version="1.0.2 (1.0.2+r75+1)"><metadata
   id="metadata11"><rdf:RDF><cc:Work
       rdf:about=""><dc:format>image/svg+xml</dc:format><dc:type
         rdf:resource="http://purl.org/dc/dcmitype/StillImage" /></cc:Work></rdf:RDF></metadata><defs
   id="defs9" /><sodipodi:namedview
   pagecolor="#ffffff"
   bordercolor="#666666"
   borderopacity="1"
   objecttolerance="10"
   gridtolerance="10"
   guidetolerance="10"
   inkscape:pageopacity="0"
   inkscape:pageshadow="2"
   inkscape:window-width="1280"
   inkscape:window-height="974"
   id="namedview7"
   showgrid="false"
   inkscape:zoom="1.2636719"
   inkscape:cx="256"
   inkscape:cy="255.20866"
   inkscape:window-x="1366"
   inkscape:window-y="25"
   inkscape:window-maximized="1"
   inkscape:current-layer="Layer_1"
   inkscape:document-rotation="0" />
<g
   id="g4">
	<path
   d="M256,512C114.9,512,0,397.1,0,256S114.9,0,256,0s256,114.9,256,256S397.1,512,256,512z M256,25.8   C129.1,25.8,25.8,129.1,25.8,256S129.1,486.2,256,486.2S486.2,382.9,486.2,256S382.9,25.8,256,25.8z M104.3,395.3   c37.4,40.9,91.6,66.4,151.7,66.4c30.7,0,59.8-6.7,85.9-18.7L199,300.6L104.3,395.3z M409.2,393.9c32.8-36.5,52.9-85.2,52.9-138   c0-82.8-48.8-153.9-118.7-186.8L213.4,198.7l195.5,195.3L409.2,393.9z M198.4,214.1L90.2,321.9l-14.5-14.5L322.4,60.8   c-20.8-7-43.1-10.8-66.4-10.8C142.1,49.8,49.8,142.2,49.8,256c0,46.3,15.3,89.2,41.4,123.8l107.8-107.8l7.7,7l154.6,154.6   c3.1-1.7,6.1-3.5,8.9-5.6L199,257.1L95.5,360.7L81,346.2l118.1-118.1l7.7,7.1l180.5,180c2.8-2.2,5.4-4.7,8-6.7L200.3,213.9   l-1.7,0.3L198.4,214.1z M263.4,236L249,221.6l102.1-102.2l14.5,14.7L263.4,236.2L263.4,236z M360.3,95.7L242.6,213.4l-14.5-14.5   L345.8,81.2L360.3,95.7L360.3,95.7z"
   id="path2"
   style="fill:#ed2224;fill-opacity:1" />
</g>
<path
   style="fill:#ffffff;"
   d="M 236.21638,485.04181 C 149.15899,476.87514 75.052411,421.54484 42.32743,340.27821 35.450325,323.20015 30.058738,301.81224 27.565408,281.7187 c -1.328561,-10.70677 -1.328561,-40.73063 0,-51.4374 C 35.494152,166.38418 67.575143,110.57076 118.30603,72.413848 171.03346,32.755245 237.6626,17.690209 302.00662,30.878626 c 92.60072,18.980115 165.17313,94.326224 180.6289,187.532504 6.55706,39.54243 2.80169,79.00314 -11.14591,117.11901 -3.98777,10.89777 -14.60596,32.45976 -20.84879,42.33694 -36.79596,58.21724 -96.74747,96.69342 -165.25777,106.06051 -10.87332,1.48666 -38.51803,2.11314 -49.16667,1.11422 z m 49.90845,-25.18752 c 11.31537,-1.6967 23.35085,-4.47371 33.18274,-7.65644 9.61373,-3.11211 22.55332,-8.38223 22.55332,-9.18566 0,-0.3928 -32.13848,-32.72683 -71.41885,-71.85337 l -71.41885,-71.1392 -47.67232,47.61987 -47.67232,47.61988 7.31374,7.39238 c 33.58782,33.94898 79.52426,54.80011 129.97216,58.99597 9.02704,0.75081 35.09734,-0.28451 45.16038,-1.79343 z m 80.06991,-28.59488 c 2.28501,-1.31044 4.15456,-2.64188 4.15456,-2.95876 0,-0.31688 -38.54757,-39.12493 -85.66126,-86.24012 l -85.66125,-85.664 -51.84426,51.8398 -51.844259,51.83979 -6.908067,-6.94022 -6.908068,-6.94022 58.929104,-58.92513 58.92911,-58.92513 93.6161,93.55526 c 51.48885,51.4554 93.96305,93.54159 94.3871,93.52486 0.42406,-0.0167 2.55153,-1.61366 4.72773,-3.54875 l 3.95672,-3.51835 -97.6461,-97.14985 c -53.70536,-53.43242 -98.18122,-97.27496 -98.83525,-97.42786 -0.72017,-0.16837 -18.38684,16.84235 -44.79594,43.13268 -23.98373,23.87589 -48.32647,48.03424 -54.09498,53.68524 L 90.207523,320.87318 83.360291,314.02596 76.513059,307.17872 199.88868,184.14158 C 267.74526,116.47116 323.07767,60.909046 322.84958,60.670219 322.101,59.886433 306.02441,55.509798 297.76891,53.842346 281.97264,50.651804 269.21735,49.642411 250.46059,50.098592 228.72758,50.627159 214.66866,52.747487 196.48947,58.238367 132.66682,77.515498 82.08619,126.18826 60.628977,188.97429 c -8.720568,25.51729 -12.167085,50.8675 -10.69435,78.66032 1.514408,28.57929 8.003609,53.2745 20.857273,79.37414 6.596987,13.39532 18.718969,32.83669 20.474168,32.83669 0.506691,0 25.048732,-24.12552 54.537872,-53.61226 l 53.61661,-53.61228 80.51799,80.51799 c 44.28489,44.28489 80.87431,80.51464 81.30982,80.51056 0.4355,-0.004 2.66138,-1.07961 4.94638,-2.39004 z m 49.50599,-44.29187 c 15.89517,-19.42283 30.31282,-46.13292 37.21319,-68.94101 6.37457,-21.07012 8.47806,-34.29881 9.01403,-56.68863 0.59461,-24.83868 -1.79451,-43.85858 -8.13781,-64.78571 -13.90507,-45.87411 -42.51381,-84.7623 -82.25382,-111.808557 -9.14787,-6.225857 -26.48783,-16.02782 -27.79936,-15.714476 -0.4915,0.117428 -30.19807,29.352767 -66.01459,64.967413 l -65.12095,64.75393 97.66838,97.6831 c 53.71761,53.72571 98.17638,97.58799 98.79728,97.47174 0.6209,-0.11626 3.60604,-3.23826 6.63365,-6.9378 z"
   id="path8" /><path
   style="fill:#ffffff;stroke-width:0.791345"
   d="m 235.62108,205.94657 -6.90885,-6.94102 58.55087,-58.54685 58.55087,-58.546866 6.92293,6.92293 6.92293,6.92293 -58.56495,58.564946 -58.56494,58.56494 z"
   id="path10" /><path
   style="fill:#ffffff;stroke-width:0.791345"
   d="m 256.38812,228.29534 -6.69905,-6.73403 50.62717,-50.6318 50.62718,-50.63181 6.94035,6.90819 6.94035,6.9082 -50.45302,50.45764 c -27.74916,27.7517 -50.63997,50.45764 -50.86848,50.45764 -0.2285,0 -3.43003,-3.03032 -7.1145,-6.73403 z"
   id="path12" /></svg>
