<?xml version="1.0" encoding="UTF-8" standalone="no"?>
<svg
   xmlns:dc="http://purl.org/dc/elements/1.1/"
   xmlns:cc="http://creativecommons.org/ns#"
   xmlns:rdf="http://www.w3.org/1999/02/22-rdf-syntax-ns#"
   xmlns:svg="http://www.w3.org/2000/svg"
   xmlns="http://www.w3.org/2000/svg"
   xmlns:sodipodi="http://sodipodi.sourceforge.net/DTD/sodipodi-0.dtd"
   xmlns:inkscape="http://www.inkscape.org/namespaces/inkscape"
   version="1.1"
   id="svg2"
   width="512"
   height="512"
   viewBox="0 0 512 512"
   sodipodi:docname="tux.svg"
   inkscape:version="1.0.2 (1.0.2+r75+1)">
  <metadata
     id="metadata8">
    <rdf:RDF>
      <cc:Work
         rdf:about="">
        <dc:format>image/svg+xml</dc:format>
        <dc:type
           rdf:resource="http://purl.org/dc/dcmitype/StillImage" />
        <dc:title></dc:title>
      </cc:Work>
    </rdf:RDF>
  </metadata>
  <defs
     id="defs6" />
  <sodipodi:namedview
     pagecolor="#ffffff"
     bordercolor="#666666"
     borderopacity="1"
     objecttolerance="10"
     gridtolerance="10"
     guidetolerance="10"
     inkscape:pageopacity="0"
     inkscape:pageshadow="2"
     inkscape:window-width="1280"
     inkscape:window-height="974"
     id="namedview4"
     showgrid="false"
     inkscape:zoom="0.32"
     inkscape:cx="459.875"
     inkscape:cy="-148.50216"
     inkscape:window-x="1366"
     inkscape:window-y="25"
     inkscape:window-maximized="1"
     inkscape:current-layer="g10" />
  <g
     inkscape:groupmode="layer"
     inkscape:label="Image"
     id="g10">
    <g
       id="g1110"
       transform="matrix(0.56522734,0,0,0.56522734,158.35272,209.03739)">
      <g
         id="g1057"
         transform="translate(-60.540242,-129.02545)">
        <path
           style="fill:#ababab"
           d="m 355.14255,634.8177 c 0.6875,-0.27741 1.8125,-0.27741 2.5,0 0.6875,0.27741 0.125,0.50439 -1.25,0.50439 -1.375,0 -1.9375,-0.22698 -1.25,-0.50439 z m 9,0 c 0.6875,-0.27741 1.8125,-0.27741 2.5,0 0.6875,0.27741 0.125,0.50439 -1.25,0.50439 -1.375,0 -1.9375,-0.22698 -1.25,-0.50439 z M 46.20505,624.79687 c 0.72187,-0.28887 1.58437,-0.25335 1.91667,0.0789 0.33229,0.33229 -0.25834,0.56864 -1.3125,0.52522 -1.16495,-0.048 -1.4019,-0.28494 -0.60417,-0.60416 z m 20,0 c 0.72187,-0.28887 1.58437,-0.25335 1.91667,0.0789 0.33229,0.33229 -0.25834,0.56864 -1.3125,0.52522 -1.16495,-0.048 -1.4019,-0.28494 -0.60417,-0.60416 z m 371.6875,-26.31689 c 3.8205,-3.85 7.17136,-7 7.44636,-7 0.275,0 -2.62586,3.15 -6.44636,7 -3.8205,3.85 -7.17136,7 -7.44636,7 -0.275,0 2.62586,-3.15 6.44636,-7 z m -514.6875,-8.68311 c 0.721875,-0.28887 1.584375,-0.25335 1.916667,0.0789 0.332291,0.33229 -0.258334,0.56864 -1.3125,0.52522 -1.164943,-0.048 -1.4019,-0.28494 -0.604167,-0.60416 z m 204,-1 c 0.72187,-0.28887 1.58438,-0.25335 1.91667,0.0789 0.33229,0.33229 -0.25834,0.56864 -1.3125,0.52522 -1.16495,-0.048 -1.4019,-0.28494 -0.60417,-0.60416 z m -221,-1 c 0.721875,-0.28887 1.584375,-0.25335 1.916667,0.0789 0.332291,0.33229 -0.258334,0.56864 -1.3125,0.52522 -1.164943,-0.048 -1.4019,-0.28494 -0.604167,-0.60416 z m 543.6875,-2.31689 c 0.99549,-1.1 2.03498,-2 2.30998,-2 0.275,0 -0.31449,0.9 -1.30998,2 -0.99549,1.1 -2.03498,2 -2.30998,2 -0.275,0 0.31449,-0.9 1.30998,-2 z m -176.23097,-0.69299 c 0.97297,-0.25354 2.32297,-0.23687 3,0.0371 0.67703,0.27393 -0.11903,0.48137 -1.76903,0.46099 -1.65,-0.0204 -2.20394,-0.2445 -1.23097,-0.49804 z m -11.45653,-0.99012 c 0.72187,-0.28887 1.58438,-0.25335 1.91667,0.0789 0.33229,0.33229 -0.25834,0.56864 -1.3125,0.52522 -1.16495,-0.048 -1.4019,-0.28494 -0.60417,-0.60416 z m -70,-5 c 0.72187,-0.28887 1.58438,-0.25335 1.91667,0.0789 0.33229,0.33229 -0.25834,0.56864 -1.3125,0.52522 -1.16495,-0.048 -1.4019,-0.28494 -0.60417,-0.60416 z m 265.6875,-1.31689 c 0.99549,-1.1 2.03498,-2 2.30998,-2 0.275,0 -0.31449,0.9 -1.30998,2 -0.99549,1.1 -2.03498,2 -2.30998,2 -0.275,0 0.31449,-0.9 1.30998,-2 z m -250.73209,0.27527 c 1.79735,-0.22256 4.49735,-0.21797 6,0.0102 1.50265,0.22818 0.0321,0.41027 -3.26791,0.40466 -3.3,-0.006 -4.52944,-0.1923 -2.73209,-0.41486 z m -19.00625,-30.98253 c 1.24391,-0.23919 3.04391,-0.23011 4,0.0202 0.95609,0.25029 -0.0617,0.446 -2.26166,0.4349 -2.2,-0.0111 -2.98225,-0.21589 -1.73834,-0.45508 z m 13,0 c 1.24391,-0.23919 3.04391,-0.23011 4,0.0202 0.95609,0.25029 -0.0617,0.446 -2.26166,0.4349 -2.2,-0.0111 -2.98225,-0.21589 -1.73834,-0.45508 z m 345.23834,-22.79274 c 1.29175,-1.375 2.57363,-2.5 2.84863,-2.5 0.275,0 -0.55688,1.125 -1.84863,2.5 -1.29175,1.375 -2.57363,2.5 -2.84863,2.5 -0.275,0 0.55688,-1.125 1.84863,-2.5 z m 10.232,-22.5 c 0,-1.925 0.2058,-2.7125 0.45733,-1.75 0.25152,0.9625 0.25152,2.5375 0,3.5 -0.25153,0.9625 -0.45733,0.175 -0.45733,-1.75 z M 90.20505,488.79687 c 0.72187,-0.28887 1.58437,-0.25335 1.91667,0.0789 0.33229,0.33229 -0.25834,0.56864 -1.3125,0.52522 -1.16495,-0.048 -1.4019,-0.28494 -0.60417,-0.60416 z m 21.6875,-7.31689 c 0.99549,-1.1 2.03498,-2 2.30998,-2 0.275,0 -0.31449,0.9 -1.30998,2 -0.99549,1.1 -2.03498,2 -2.30998,2 -0.275,0 0.31449,-0.9 1.30998,-2 z m 6.732,-16 c 0,-1.925 0.2058,-2.7125 0.45733,-1.75 0.25152,0.9625 0.25152,2.5375 0,3.5 -0.25153,0.9625 -0.45733,0.175 -0.45733,-1.75 z m -266.94599,-9.5 c 0.008,-2.75 0.20172,-3.75631 0.43157,-2.23625 0.22986,1.52006 0.22371,3.77006 -0.0136,5 -0.23736,1.22994 -0.42542,-0.0138 -0.41792,-2.76375 z m 464.90894,2 c 0.0204,-1.65 0.2445,-2.20394 0.49804,-1.23097 0.25354,0.97297 0.23687,2.32297 -0.0371,3 -0.27393,0.67703 -0.48137,-0.11903 -0.46099,-1.76903 z m 218.67749,0.75 c -1.24387,-1.58606 -1.2085,-1.62143 0.37756,-0.37756 0.9625,0.75485 1.75,1.54235 1.75,1.75 0,0.82304 -0.82119,0.29331 -2.12756,-1.37244 z m -217.71455,-18.25 c 0,-1.375 0.22698,-1.9375 0.50439,-1.25 0.27741,0.6875 0.27741,1.8125 0,2.5 -0.27741,0.6875 -0.50439,0.125 -0.50439,-1.25 z m 0.92106,-12.58333 c 0.048,-1.16495 0.28494,-1.4019 0.60416,-0.60417 0.28887,0.72187 0.25335,1.58438 -0.0789,1.91667 -0.33229,0.33229 -0.56864,-0.25834 -0.52522,-1.3125 z m -218.20651,-1.16667 c -1.24387,-1.58606 -1.2085,-1.62143 0.37756,-0.37756 0.9625,0.75485 1.75,1.54235 1.75,1.75 0,0.82304 -0.82119,0.29331 -2.12756,-1.37244 z m -238.87244,0.37244 c 0,-0.20765 0.7875,-0.99515 1.75,-1.75 1.58606,-1.24387 1.62143,-1.2085 0.37756,0.37756 -1.30637,1.66575 -2.12756,2.19548 -2.12756,1.37244 z m 4,-4 c 0,-0.20765 0.7875,-0.99515 1.75,-1.75 1.58606,-1.24387 1.62143,-1.2085 0.37756,0.37756 -1.30637,1.66575 -2.12756,2.19548 -2.12756,1.37244 z m 224.96584,-7.37244 -5.46584,-5.75 5.75,5.46584 c 5.34193,5.07794 6.20809,6.03416 5.46584,6.03416 -0.15629,0 -2.74379,-2.5875 -5.75,-5.75 z m -12.0934,-11 c -1.24387,-1.58606 -1.2085,-1.62143 0.37756,-0.37756 1.66575,1.30637 2.19548,2.12756 1.37244,2.12756 -0.20765,0 -0.99515,-0.7875 -1.75,-1.75 z m -162.87244,-7.75 c 1.291745,-1.375 2.573628,-2.5 2.848628,-2.5 0.275,0 -0.556883,1.125 -1.848628,2.5 -1.291745,1.375 -2.573628,2.5 -2.848628,2.5 -0.275,0 0.556883,-1.125 1.848628,-2.5 z m 24,-30 c 1.865783,-1.925 3.617334,-3.5 3.892334,-3.5 0.275,0 -1.026551,1.575 -2.892334,3.5 -1.865783,1.925 -3.617334,3.5 -3.892334,3.5 -0.275,0 1.026551,-1.575 2.892334,-3.5 z m 81,-5 c -2.42903,-2.475 -4.19142,-4.5 -3.91642,-4.5 0.275,0 2.48739,2.025 4.91642,4.5 2.42903,2.475 4.19142,4.5 3.91642,4.5 -0.275,0 -2.48739,-2.025 -4.91642,-4.5 z m 318,1.18709 c 0,-0.1721 1.4625,-1.6346 3.25,-3.25 l 3.25,-2.93709 -2.93709,3.25 c -2.73778,3.02946 -3.56291,3.70965 -3.56291,2.93709 z m -395.921053,-7.27042 c 0.04798,-1.16495 0.284941,-1.4019 0.604167,-0.60417 0.288871,0.72187 0.253344,1.58438 -0.07895,1.91667 -0.332292,0.33229 -0.568641,-0.25834 -0.52522,-1.3125 z M 23.89963,340.49143 c -0.35034,-0.56686 0.0511,-0.7345 0.94098,-0.39301 1.73242,0.66479 2.04939,1.38156 0.61096,1.38156 -0.51754,0 -1.21592,-0.44485 -1.55194,-0.98855 z m 471.57187,-4.59478 c 0.048,-1.16495 0.28494,-1.4019 0.60416,-0.60417 0.28887,0.72187 0.25335,1.58438 -0.0789,1.91667 -0.33229,0.33229 -0.56864,-0.25834 -0.52522,-1.3125 z m -127.57895,-9.41667 c 0.99549,-1.1 2.03498,-2 2.30998,-2 0.275,0 -0.31449,0.9 -1.30998,2 -0.99549,1.1 -2.03498,2 -2.30998,2 -0.275,0 0.31449,-0.9 1.30998,-2 z M 26.4715,325.89665 c 0.048,-1.16495 0.28494,-1.4019 0.60416,-0.60417 0.28887,0.72187 0.25335,1.58438 -0.0789,1.91667 -0.3323,0.33229 -0.56864,-0.25834 -0.52522,-1.3125 z m -84.000003,-1 c 0.04798,-1.16495 0.284941,-1.4019 0.604167,-0.60417 0.288871,0.72187 0.253344,1.58438 -0.07895,1.91667 -0.332292,0.33229 -0.568641,-0.25834 -0.52522,-1.3125 z M -4.44956,306.47998 c 0,-1.375 0.22698,-1.9375 0.50439,-1.25 0.27741,0.6875 0.27741,1.8125 0,2.5 -0.27741,0.6875 -0.50439,0.125 -0.50439,-1.25 z m 499.92106,-3.58333 c 0.048,-1.16495 0.28494,-1.4019 0.60416,-0.60417 0.28887,0.72187 0.25335,1.58438 -0.0789,1.91667 -0.33229,0.33229 -0.56864,-0.25834 -0.52522,-1.3125 z m -488,-7 c 0.048,-1.16495 0.28494,-1.4019 0.60416,-0.60417 0.28887,0.72187 0.25335,1.58438 -0.0789,1.91667 -0.3323,0.33229 -0.56864,-0.25834 -0.52522,-1.3125 z m -11.92106,-4.41667 c 0,-1.375 0.22698,-1.9375 0.50439,-1.25 0.27741,0.6875 0.27741,1.8125 0,2.5 -0.27741,0.6875 -0.50439,0.125 -0.50439,-1.25 z m 425.17832,-6 c 0,-4.125 0.17651,-5.8125 0.39226,-3.75 0.21574,2.0625 0.21574,5.4375 0,7.5 -0.21575,2.0625 -0.39226,0.375 -0.39226,-3.75 z m -13.25726,-5.58333 c 0.048,-1.16495 0.28494,-1.4019 0.60416,-0.60417 0.28887,0.72187 0.25335,1.58438 -0.0789,1.91667 -0.33229,0.33229 -0.56864,-0.25834 -0.52522,-1.3125 z m 0.0789,-18.41667 c 0,-1.375 0.22698,-1.9375 0.50439,-1.25 0.27741,0.6875 0.27741,1.8125 0,2.5 -0.27741,0.6875 -0.50439,0.125 -0.50439,-1.25 z m -43.69548,-94.25 -4.96241,-5.25 5.25,4.96241 c 4.87839,4.61116 5.7086,5.53759 4.96241,5.53759 -0.15818,0 -2.52068,-2.3625 -5.25,-5.25 z m 0.006,-7 -5.9687,-6.25 6.25,5.9687 c 3.4375,3.28278 6.25,6.09528 6.25,6.25 0,0.7389 -0.98689,-0.16298 -6.5313,-5.9687 z M 46.39255,117.10242 c 0,-0.20765 0.7875,-0.99515 1.75,-1.75 1.58606,-1.24387 1.62143,-1.2085 0.37756,0.37756 -1.30637,1.66575 -2.12756,2.19548 -2.12756,1.37244 z m 129.8125,-30.30555 c 0.72187,-0.28887 1.58438,-0.25335 1.91667,0.0789 0.33229,0.33229 -0.25834,0.56864 -1.3125,0.52522 -1.16495,-0.048 -1.4019,-0.28494 -0.60417,-0.60416 z m 8.9375,0.0208 c 0.6875,-0.27741 1.8125,-0.27741 2.5,0 0.6875,0.27741 0.125,0.50439 -1.25,0.50439 -1.375,0 -1.9375,-0.22698 -1.25,-0.50439 z m -44.34501,-16.58769 -1.90499,-2.25 2.25,1.90499 c 1.2375,1.04774 2.25,2.06024 2.25,2.25 0,0.80025 -0.80479,0.20945 -2.59501,-1.90499 z m -8.53255,-7.5 c -1.24387,-1.58606 -1.2085,-1.62143 0.37756,-0.37756 1.66575,1.30637 2.19548,2.12756 1.37244,2.12756 -0.20765,0 -0.99515,-0.7875 -1.75,-1.75 z m -17.71455,-10.25 c 0,-1.375 0.22698,-1.9375 0.50439,-1.25 0.27741,0.6875 0.27741,1.8125 0,2.5 -0.27741,0.6875 -0.50439,0.125 -0.50439,-1.25 z m 160.34211,-9 c 2.14824,-2.2 4.1309,-4 4.4059,-4 0.275,0 -1.25766,1.8 -3.4059,4 -2.14824,2.2 -4.1309,4 -4.4059,4 -0.275,0 1.25766,-1.8 3.4059,-4 z M 87.4715,16.89665 c 0.048,-1.16495 0.28494,-1.4019 0.60416,-0.60417 0.28887,0.72187 0.25335,1.58437 -0.0789,1.91667 -0.3323,0.33229 -0.56864,-0.25834 -0.52522,-1.3125 z M 88.55044,6.47998 c 0,-1.375 0.22698,-1.9375 0.50439,-1.25 0.27741,0.6875 0.27741,1.8125 0,2.5 -0.27741,0.6875 -0.50439,0.125 -0.50439,-1.25 z m 259.03706,-0.5 c 0.0204,-1.65 0.2445,-2.20394 0.49804,-1.23097 0.25354,0.97297 0.23687,2.32297 -0.0371,3 -0.27393,0.67703 -0.48137,-0.11903 -0.46099,-1.76903 z M 117.89963,-9.50857 c -0.35034,-0.56686 0.0511,-0.7345 0.94098,-0.39301 1.73242,0.66479 2.04939,1.38156 0.61096,1.38156 -0.51754,0 -1.21592,-0.44485 -1.55194,-0.98855 z m -29.27508,-3.01145 c 0,-1.925 0.2058,-2.7125 0.45733,-1.75 0.25152,0.9625 0.25152,2.5375 0,3.5 -0.25153,0.9625 -0.45733,0.175 -0.45733,-1.75 z m 259.19807,-21 c 0,-12.925 0.14251,-18.2125 0.3167,-11.75 0.17418,6.4625 0.17418,17.0375 0,23.5 -0.17419,6.4625 -0.3167,1.175 -0.3167,-11.75 z m -260.27218,4 c 0,-1.375 0.22698,-1.9375 0.50439,-1.25 0.27741,0.6875 0.27741,1.8125 0,2.5 -0.27741,0.6875 -0.50439,0.125 -0.50439,-1.25 z m 31.92106,-8.58333 c 0.048,-1.16495 0.28494,-1.4019 0.60416,-0.60417 0.28887,0.72187 0.25335,1.58437 -0.0789,1.91667 -0.33229,0.33229 -0.56864,-0.25834 -0.52522,-1.3125 z m -32.884,-6.91667 c 0.0204,-1.65 0.2445,-2.20394 0.49804,-1.23097 0.25354,0.97297 0.23687,2.32297 -0.0371,3 -0.27393,0.67703 -0.48137,-0.11903 -0.46099,-1.76903 z m 193.884,-12.08333 c 0.048,-1.16495 0.28494,-1.4019 0.60416,-0.60417 0.28887,0.72187 0.25335,1.58437 -0.0789,1.91667 -0.33229,0.33229 -0.56864,-0.25834 -0.52522,-1.3125 z m -141.15464,-4.16667 -2.42431,-2.75 2.75,2.42431 c 2.57029,2.26589 3.20859,3.07569 2.42431,3.07569 -0.17912,0 -1.41662,-1.2375 -2.75,-2.75 z m -53.55024,-14.75 c 0.002,-6.05 0.16696,-8.39607 0.36601,-5.21349 0.19905,3.18258 0.1972,8.13258 -0.004,11 -0.20131,2.86742 -0.36417,0.26349 -0.36191,-5.78651 z m 159.49837,8.75 c -1.24387,-1.58606 -1.2085,-1.62143 0.37756,-0.37756 0.9625,0.75485 1.75,1.54235 1.75,1.75 0,0.82304 -0.82119,0.29331 -2.12756,-1.37244 z m 101.28545,-8.25 c 0,-1.375 0.22698,-1.9375 0.50439,-1.25 0.27741,0.6875 0.27741,1.8125 0,2.5 -0.27741,0.6875 -0.50439,0.125 -0.50439,-1.25 z m -1.07894,-12.58333 c 0.048,-1.16495 0.28494,-1.4019 0.60416,-0.60417 0.28887,0.72187 0.25335,1.58437 -0.0789,1.91667 -0.33229,0.33229 -0.56864,-0.25834 -0.52522,-1.3125 z m -213.26645,-8.09978 c 0.72187,-0.28887 1.58438,-0.25335 1.91667,0.0789 0.33229,0.33229 -0.25834,0.56864 -1.3125,0.52522 -1.16495,-0.048 -1.4019,-0.28494 -0.60417,-0.60416 z m -45.73355,-5.90022 c 0.048,-1.16495 0.28494,-1.4019 0.60416,-0.60417 0.28887,0.72187 0.25335,1.58437 -0.0789,1.91667 -0.3323,0.33229 -0.56864,-0.25834 -0.52522,-1.3125 z m 155.73355,-2.09978 c 0.72187,-0.28887 1.58438,-0.25335 1.91667,0.0789 0.33229,0.3323 -0.25834,0.56864 -1.3125,0.52522 -1.16495,-0.048 -1.4019,-0.28494 -0.60417,-0.60416 z M 87.4715,-112.10335 c 0.048,-1.16495 0.28494,-1.4019 0.60416,-0.60417 0.28887,0.72187 0.25335,1.58437 -0.0789,1.91667 -0.3323,0.33229 -0.56864,-0.25834 -0.52522,-1.3125 z m 33.42105,-77.41667 c 2.70865,-2.75 5.14982,-5 5.42482,-5 0.275,0 -1.71617,2.25 -4.42482,5 -2.70865,2.75 -5.14982,5 -5.42482,5 -0.275,0 1.71617,-2.25 4.42482,-5 z m 184.46584,-2.75 -5.46584,-5.75 5.75,5.46584 c 3.1625,3.00621 5.75,5.59371 5.75,5.75 0,0.74225 -0.95622,-0.12391 -6.03416,-5.46584 z m -64.15334,-29.93311 c 0.72187,-0.28887 1.58438,-0.25335 1.91667,0.0789 0.33229,0.33229 -0.25834,0.56864 -1.3125,0.52522 -1.16495,-0.048 -1.4019,-0.28494 -0.60417,-0.60416 z m -34.54347,-1.00988 c 0.97297,-0.25354 2.32297,-0.23687 3,0.037 0.67703,0.27393 -0.11903,0.48137 -1.76903,0.46099 -1.65,-0.0204 -2.20394,-0.2445 -1.23097,-0.49804 z m 23.48097,0.0307 c 0.6875,-0.27741 1.8125,-0.27741 2.5,0 0.6875,0.27741 0.125,0.50439 -1.25,0.50439 -1.375,0 -1.9375,-0.22698 -1.25,-0.50439 z"
           id="path1071" />
        <path
           style="fill:#d4a110"
           d="m 352.89255,622.78242 c -17.47875,-2.31824 -33.10936,-13.50125 -41.67919,-29.81963 -8.84557,-16.84342 -7.56131,-35.30115 5.58363,-80.2494 9.45592,-32.33387 10.48251,-37.51947 12.12237,-61.23341 2.72003,-39.33445 5.50879,-55.71503 11.80561,-69.34367 3.57336,-7.73407 10.17643,-15.79642 15.48124,-18.90261 l 2.98233,-1.74628 1.17397,6.74146 c 3.61265,20.74537 13.91629,36.03723 27.82841,41.30076 15.93785,6.02994 42.33769,-2.96737 62.84856,-21.41937 l 5.14693,-4.63029 h 10.56556 c 12.88874,0 19.25212,2.04704 26.43299,8.50327 6.37196,5.72894 9.4694,12.73659 14.33997,32.4427 6.47495,26.19738 7.25827,27.82915 22.16948,46.18216 13.98603,17.21427 18.04265,30.48919 12.30756,40.27537 -3.84062,6.55353 -11.76399,11.69784 -39.10942,25.3921 -37.16974,18.61415 -48.55055,26.56329 -65.23861,45.56714 -25.18234,28.67688 -57.93718,44.49744 -84.76139,40.9397 z m -307,-9.92348 c -20.4829,-3.1213 -32.38035,-6.82946 -52.46441,-16.35192 -24.81091,-11.76359 -37.76244,-15.09358 -76.03559,-19.54958 -12.375,-1.44078 -25.4902,-3.24648 -29.14489,-4.01267 -28.86655,-6.05172 -34.25007,-18.5155 -23.23641,-53.79634 4.08473,-13.08489 4.37726,-21.69765 1.3813,-40.66845 -2.78499,-17.63493 -2.66452,-30.03524 0.3546,-36.5 4.98678,-10.67805 11.14656,-15.22151 29.1454,-21.49767 21.647928,-7.5486 26.546262,-11.3544 43.449042,-33.75811 14.354968,-19.02672 20.671138,-23.46119 33.345858,-23.41147 9.18289,0.036 16.73236,2.75971 24.99275,9.01687 10.7954,8.17741 15.91274,15.62145 35.6295,51.82922 20.33465,37.34245 24.63943,43.99478 44.53475,68.82116 24.47595,30.54233 35.17865,48.47688 37.69851,63.17155 1.0391,6.0596 0.96419,8.33589 -0.52355,15.90775 -5.1805,26.36613 -23.27591,39.91321 -54.62686,40.89624 -6.325,0.19832 -12.85,0.15486 -14.5,-0.0966 z m 122.5,-534.19324 c -8.41099,-2.1985 -13.67313,-5.36228 -23.5,-14.12904 -4.4,-3.92533 -12.44851,-10.0894 -17.88558,-13.69794 -17.182,-11.40355 -24.30351,-21.04419 -23.4183,-31.70217 0.23556,-2.83611 1.27504,-6.44824 2.30997,-8.02695 1.03492,-1.57871 7.78796,-7.25 15.00675,-12.60286 7.21879,-5.35286 16.60656,-12.9061 20.86171,-16.78497 23.63668,-21.54647 48.34142,-22.72846 80.12545,-3.83356 4.95,2.94266 13.5,7.00202 19,9.0208 26.93737,9.88738 32.7331,12.94388 37.12315,19.5777 10.85956,16.40991 -5.27325,38.09318 -36.52298,49.08867 -2.96991,1.04499 -10.90182,5.27546 -17.62646,9.40106 -15.04139,9.22794 -21.33329,12.15494 -30.13892,14.02066 -8.89967,1.88566 -17.27175,1.77614 -25.33479,-0.3314 z m 18.30564,-23.30109 c 14.56301,-2.25953 26.71781,-7.54178 53.69436,-23.33457 9.075,-5.31275 18.41524,-10.17897 20.7561,-10.81384 4.18276,-1.1344 4.24509,-1.21531 3.61734,-4.69526 -0.35132,-1.94753 -0.72753,-3.65193 -0.83604,-3.78756 -0.68091,-0.85117 -11.21682,3.37849 -17.5374,7.04042 -4.125,2.38988 -13.03989,7.54586 -19.81086,11.45773 -32.91163,19.0144 -53.90829,21.96628 -76.68914,10.78161 -6.68118,-3.28025 -15.58259,-9.97929 -29.26092,-22.02125 -7.53429,-6.63295 -9.25458,-6.96244 -9.199,-1.76191 0.0368,3.44635 0.76975,4.39778 9.05141,11.75 24.57264,21.81487 43.19874,28.95559 66.21415,25.38463 z"
           id="path1069" />
        <path
           style="fill:#b3880e"
           d="m 321.31686,607.72998 -2.42431,-2.75 2.75,2.42431 c 2.57029,2.26589 3.20859,3.07569 2.42431,3.07569 -0.17912,0 -1.41662,-1.2375 -2.75,-2.75 z m 124.57569,-35.25 c 2.14824,-2.2 4.1309,-4 4.4059,-4 0.275,0 -1.25766,1.8 -3.4059,4 -2.14824,2.2 -4.1309,4 -4.4059,4 -0.275,0 1.25766,-1.8 3.4059,-4 z m 48.37244,-179.75 c -1.24387,-1.58606 -1.2085,-1.62143 0.37756,-0.37756 0.9625,0.75485 1.75,1.54235 1.75,1.75 0,0.82304 -0.82119,0.29331 -2.12756,-1.37244 z m -352,-330 c -1.24387,-1.58606 -1.2085,-1.62143 0.37756,-0.37756 1.66575,1.30637 2.19548,2.12756 1.37244,2.12756 -0.20765,0 -0.99515,-0.7875 -1.75,-1.75 z m -21,-42 c -1.24387,-1.58606 -1.2085,-1.62143 0.37756,-0.37756 1.66575,1.30637 2.19548,2.12756 1.37244,2.12756 -0.20765,0 -0.99515,-0.7875 -1.75,-1.75 z m 16.12756,-35.75 c 1.29175,-1.375 2.57363,-2.5 2.84863,-2.5 0.275,0 -0.55688,1.125 -1.84863,2.5 -1.29175,1.375 -2.57363,2.5 -2.84863,2.5 -0.275,0 0.55688,-1.125 1.84863,-2.5 z"
           id="path1067" />
        <path
           style="fill:#656565"
           d="m 359.66158,634.78699 c 0.97297,-0.25354 2.32297,-0.23687 3,0.0371 0.67703,0.27393 -0.11903,0.48137 -1.76903,0.46099 -1.65,-0.0204 -2.20394,-0.2445 -1.23097,-0.49804 z m 11.54347,-0.99012 c 0.72187,-0.28887 1.58438,-0.25335 1.91667,0.0789 0.33229,0.33229 -0.25834,0.56864 -1.3125,0.52522 -1.16495,-0.048 -1.4019,-0.28494 -0.60417,-0.60416 z M 52.67272,624.74371 c 2.6291,-0.20668 6.6791,-0.20418 9,0.006 2.32091,0.20972 0.16983,0.37882 -4.78017,0.37577 -4.95,-0.003 -6.84892,-0.17464 -4.21983,-0.38131 z m -12.46767,-0.94684 c 0.72187,-0.28887 1.58437,-0.25335 1.91667,0.0789 0.33229,0.33229 -0.25834,0.56864 -1.3125,0.52522 -1.16495,-0.048 -1.4019,-0.28494 -0.60417,-0.60416 z m 31,0 c 0.72187,-0.28887 1.58437,-0.25335 1.91667,0.0789 0.33229,0.33229 -0.25834,0.56864 -1.3125,0.52522 -1.16495,-0.048 -1.4019,-0.28494 -0.60417,-0.60416 z m 244.05994,-6.06689 c -1.24387,-1.58606 -1.2085,-1.62143 0.37756,-0.37756 0.9625,0.75485 1.75,1.54235 1.75,1.75 0,0.82304 -0.82119,0.29331 -2.12756,-1.37244 z m -5,-5 c -1.24387,-1.58606 -1.2085,-1.62143 0.37756,-0.37756 0.9625,0.75485 1.75,1.54235 1.75,1.75 0,0.82304 -0.82119,0.29331 -2.12756,-1.37244 z M -73.79495,589.79687 c 0.721875,-0.28887 1.584375,-0.25335 1.916667,0.0789 0.332291,0.33229 -0.258334,0.56864 -1.3125,0.52522 -1.164943,-0.048 -1.4019,-0.28494 -0.604167,-0.60416 z m -9.0625,-0.97917 c 0.6875,-0.27741 1.8125,-0.27741 2.5,0 0.6875,0.27741 0.125,0.50439 -1.25,0.50439 -1.375,0 -1.9375,-0.22698 -1.25,-0.50439 z m 206,0 c 0.6875,-0.27741 1.8125,-0.27741 2.5,0 0.6875,0.27741 0.125,0.50439 -1.25,0.50439 -1.375,0 -1.9375,-0.22698 -1.25,-0.50439 z m -213.9375,-1.02083 c 0.721875,-0.28887 1.584375,-0.25335 1.916667,0.0789 0.332291,0.33229 -0.258334,0.56864 -1.3125,0.52522 -1.164943,-0.048 -1.4019,-0.28494 -0.604167,-0.60416 z m 224,0 c 0.72187,-0.28887 1.58438,-0.25335 1.91667,0.0789 0.33229,0.33229 -0.25834,0.56864 -1.3125,0.52522 -1.16495,-0.048 -1.4019,-0.28494 -0.60417,-0.60416 z m -232,-1 c 0.721875,-0.28887 1.584375,-0.25335 1.916667,0.0789 0.332291,0.33229 -0.258334,0.56864 -1.3125,0.52522 -1.164943,-0.048 -1.4019,-0.28494 -0.604167,-0.60416 z m 239,0 c 0.72187,-0.28887 1.58438,-0.25335 1.91667,0.0789 0.33229,0.33229 -0.25834,0.56864 -1.3125,0.52522 -1.16495,-0.048 -1.4019,-0.28494 -0.60417,-0.60416 z m 141.4375,-2.05193 c 2.6125,-0.206 6.8875,-0.206 9.5,0 2.6125,0.206 0.475,0.37454 -4.75,0.37454 -5.225,0 -7.3625,-0.16854 -4.75,-0.37454 z m -16.5,-0.92724 c 0.6875,-0.27741 1.8125,-0.27741 2.5,0 0.6875,0.27741 0.125,0.50439 -1.25,0.50439 -1.375,0 -1.9375,-0.22698 -1.25,-0.50439 z m -9,-1 c 0.6875,-0.27741 1.8125,-0.27741 2.5,0 0.6875,0.27741 0.125,0.50439 -1.25,0.50439 -1.375,0 -1.9375,-0.22698 -1.25,-0.50439 z m -6.9375,-1.02083 c 0.72187,-0.28887 1.58438,-0.25335 1.91667,0.0789 0.33229,0.33229 -0.25834,0.56864 -1.3125,0.52522 -1.16495,-0.048 -1.4019,-0.28494 -0.60417,-0.60416 z m -76,-1 c 0.72187,-0.28887 1.58438,-0.25335 1.91667,0.0789 0.33229,0.33229 -0.25834,0.56864 -1.3125,0.52522 -1.16495,-0.048 -1.4019,-0.28494 -0.60417,-0.60416 z m 69,0 c 0.72187,-0.28887 1.58438,-0.25335 1.91667,0.0789 0.33229,0.33229 -0.25834,0.56864 -1.3125,0.52522 -1.16495,-0.048 -1.4019,-0.28494 -0.60417,-0.60416 z m -62,-1 c 0.72187,-0.28887 1.58438,-0.25335 1.91667,0.0789 0.33229,0.33229 -0.25834,0.56864 -1.3125,0.52522 -1.16495,-0.048 -1.4019,-0.28494 -0.60417,-0.60416 z m 55,0 c 0.72187,-0.28887 1.58438,-0.25335 1.91667,0.0789 0.33229,0.33229 -0.25834,0.56864 -1.3125,0.52522 -1.16495,-0.048 -1.4019,-0.28494 -0.60417,-0.60416 z m -47.0625,-0.97917 c 0.6875,-0.27741 1.8125,-0.27741 2.5,0 0.6875,0.27741 0.125,0.50439 -1.25,0.50439 -1.375,0 -1.9375,-0.22698 -1.25,-0.50439 z m 39,0 c 0.6875,-0.27741 1.8125,-0.27741 2.5,0 0.6875,0.27741 0.125,0.50439 -1.25,0.50439 -1.375,0 -1.9375,-0.22698 -1.25,-0.50439 z m -27.98834,-1.04498 c 1.24391,-0.23919 3.04391,-0.23011 4,0.0202 0.95609,0.25029 -0.0617,0.446 -2.26166,0.4349 -2.2,-0.0111 -2.98225,-0.21589 -1.73834,-0.45508 z m 17.48834,0.0179 c 0.9625,-0.25152 2.5375,-0.25152 3.5,0 0.9625,0.25153 0.175,0.45733 -1.75,0.45733 -1.925,0 -2.7125,-0.2058 -1.75,-0.45733 z m -359.84501,-6.56064 -1.90499,-2.25 2.25,1.90499 c 1.2375,1.04774 2.25,2.06024 2.25,2.25 0,0.80025 -0.80479,0.20945 -2.59501,-1.90499 z m -9.10533,-25.75 c 0,-3.025 0.18747,-4.2625 0.41659,-2.75 0.22913,1.5125 0.22913,3.9875 0,5.5 -0.22912,1.5125 -0.41659,0.275 -0.41659,-2.75 z m 334.96937,1.30701 c 0.97297,-0.25354 2.32297,-0.23687 3,0.0371 0.67703,0.27393 -0.11903,0.48137 -1.76903,0.46099 -1.65,-0.0204 -2.20394,-0.2445 -1.23097,-0.49804 z m 25,0 c 0.97297,-0.25354 2.32297,-0.23687 3,0.0371 0.67703,0.27393 -0.11903,0.48137 -1.76903,0.46099 -1.65,-0.0204 -2.20394,-0.2445 -1.23097,-0.49804 z m -33.45653,-0.99012 c 0.72187,-0.28887 1.58438,-0.25335 1.91667,0.0789 0.33229,0.33229 -0.25834,0.56864 -1.3125,0.52522 -1.16495,-0.048 -1.4019,-0.28494 -0.60417,-0.60416 z m 43,0 c 0.72187,-0.28887 1.58438,-0.25335 1.91667,0.0789 0.33229,0.33229 -0.25834,0.56864 -1.3125,0.52522 -1.16495,-0.048 -1.4019,-0.28494 -0.60417,-0.60416 z m -360.50263,-45.81689 c 0.006,-3.3 0.1923,-4.52944 0.41486,-2.73209 0.22256,1.79735 0.21797,4.49735 -0.0102,6 -0.22817,1.50265 -0.41027,0.0321 -0.40466,-3.26791 z m -1.23092,-12.08333 c 0.048,-1.16495 0.28494,-1.4019 0.60416,-0.60417 0.28887,0.72187 0.25335,1.58438 -0.0789,1.91667 -0.33229,0.33229 -0.56864,-0.25834 -0.52522,-1.3125 z m -2,-14 c 0.048,-1.16495 0.28494,-1.4019 0.60416,-0.60417 0.28887,0.72187 0.25335,1.58438 -0.0789,1.91667 -0.33229,0.33229 -0.56864,-0.25834 -0.52522,-1.3125 z m -0.92106,-7.41667 c 0,-1.375 0.22698,-1.9375 0.50439,-1.25 0.27741,0.6875 0.27741,1.8125 0,2.5 -0.27741,0.6875 -0.50439,0.125 -0.50439,-1.25 z m 464.03706,-3.5 c 0.0204,-1.65 0.2445,-2.20394 0.49804,-1.23097 0.25354,0.97297 0.23687,2.32297 -0.0371,3 -0.27393,0.67703 -0.48137,-0.11903 -0.46099,-1.76903 z m 1.07741,-16.5 c 0,-2.475 0.19502,-3.4875 0.43337,-2.25 0.23836,1.2375 0.23836,3.2625 0,4.5 -0.23835,1.2375 -0.43337,0.225 -0.43337,-2.25 z m 0.92259,-14.5 c 0.0204,-1.65 0.2445,-2.20394 0.49804,-1.23097 0.25354,0.97297 0.23687,2.32297 -0.0371,3 -0.27393,0.67703 -0.48137,-0.11903 -0.46099,-1.76903 z m 0.96294,-10.5 c 0,-1.375 0.22698,-1.9375 0.50439,-1.25 0.27741,0.6875 0.27741,1.8125 0,2.5 -0.27741,0.6875 -0.50439,0.125 -0.50439,-1.25 z m 0.92106,-8.58333 c 0.048,-1.16495 0.28494,-1.4019 0.60416,-0.60417 0.28887,0.72187 0.25335,1.58438 -0.0789,1.91667 -0.33229,0.33229 -0.56864,-0.25834 -0.52522,-1.3125 z m 150.22071,-51.41667 c 0,-3.025 0.18747,-4.2625 0.41659,-2.75 0.22913,1.5125 0.22913,3.9875 0,5.5 -0.22912,1.5125 -0.41659,0.275 -0.41659,-2.75 z m -527.220713,0.41667 c 0.04798,-1.16495 0.284941,-1.4019 0.604167,-0.60417 0.288871,0.72187 0.253344,1.58438 -0.07895,1.91667 -0.332292,0.33229 -0.568641,-0.25834 -0.52522,-1.3125 z m -0.826764,-10.91667 c 0.0111,-2.2 0.215885,-2.98225 0.455078,-1.73834 0.239193,1.24391 0.230112,3.04391 -0.02018,4 -0.250293,0.95609 -0.445997,-0.0617 -0.434898,-2.26166 z M 494.4715,341.89665 c 0.048,-1.16495 0.28494,-1.4019 0.60416,-0.60417 0.28887,0.72187 0.25335,1.58438 -0.0789,1.91667 -0.33229,0.33229 -0.56864,-0.25834 -0.52522,-1.3125 z M 25.67856,335.97998 c 0.008,-2.75 0.20172,-3.75631 0.43157,-2.23625 0.22986,1.52006 0.22371,3.77006 -0.0136,5 -0.23736,1.22994 -0.42542,-0.0137 -0.41792,-2.76375 z m 469.94599,-4.5 c 0,-1.925 0.2058,-2.7125 0.45733,-1.75 0.25152,0.9625 0.25152,2.5375 0,3.5 -0.25153,0.9625 -0.45733,0.175 -0.45733,-1.75 z m -552.979817,-1.5 c 0.0111,-2.2 0.215885,-2.98225 0.455078,-1.73834 0.239193,1.24391 0.230112,3.04391 -0.02018,4 -0.250293,0.95609 -0.445997,-0.0617 -0.434898,-2.26166 z m 83.905707,-7.5 c 0,-1.375 0.22698,-1.9375 0.50439,-1.25 0.27741,0.6875 0.27741,1.8125 0,2.5 -0.27741,0.6875 -0.50439,0.125 -0.50439,-1.25 z m -83.078943,-3.58333 c 0.04798,-1.16495 0.284941,-1.4019 0.604167,-0.60417 0.288871,0.72187 0.253344,1.58438 -0.07895,1.91667 -0.332292,0.33229 -0.568641,-0.25834 -0.52522,-1.3125 z M 387.6563,318.7624 c 1.52006,-0.22986 3.77006,-0.22371 5,0.0136 1.22994,0.23736 -0.0137,0.42542 -2.76375,0.41792 -2.75,-0.008 -3.75631,-0.20172 -2.23625,-0.43157 z M 27.4715,314.89665 c 0.048,-1.16495 0.28494,-1.4019 0.60416,-0.60417 0.28887,0.72187 0.25335,1.58438 -0.0789,1.91667 -0.3323,0.33229 -0.56864,-0.25834 -0.52522,-1.3125 z m -83.000003,-3 c 0.04798,-1.16495 0.284941,-1.4019 0.604167,-0.60417 0.288871,0.72187 0.253344,1.58438 -0.07895,1.91667 -0.332292,0.33229 -0.568641,-0.25834 -0.52522,-1.3125 z m 51.078943,-1.41667 c 0,-1.375 0.22698,-1.9375 0.50439,-1.25 0.27741,0.6875 0.27741,1.8125 0,2.5 -0.27741,0.6875 -0.50439,0.125 -0.50439,-1.25 z m 500.09429,-2.5 c 0.0111,-2.2 0.21589,-2.98225 0.45508,-1.73834 0.23919,1.24391 0.23011,3.04391 -0.0202,4 -0.25029,0.95609 -0.446,-0.0617 -0.4349,-2.26166 z M 28.4715,307.89668 c 0.048,-1.16495 0.28494,-1.4019 0.60416,-0.60417 0.28887,0.72187 0.25335,1.58438 -0.0789,1.91667 -0.3323,0.33229 -0.56864,-0.25834 -0.52522,-1.3125 z m 370.92105,-0.80971 c 0,-0.21616 0.69837,-0.661 1.55194,-0.98855 0.88992,-0.34149 1.29132,-0.17385 0.94098,0.39301 -0.58726,0.95021 -2.49292,1.40545 -2.49292,0.59554 z m -14.23834,-2.31425 c 1.24391,-0.23919 3.04391,-0.23011 4,0.0202 0.95609,0.25029 -0.0617,0.446 -2.26166,0.4349 -2.2,-0.0111 -2.98225,-0.21589 -1.73834,-0.45508 z m 34.31729,-0.87607 c 0.048,-1.16495 0.28494,-1.4019 0.60416,-0.60417 0.28887,0.72187 0.25335,1.58438 -0.0789,1.91667 -0.33229,0.33229 -0.56864,-0.25834 -0.52522,-1.3125 z m -411,-3 c 0.048,-1.16495 0.28494,-1.4019 0.60416,-0.60417 0.28887,0.72187 0.25335,1.58438 -0.0789,1.91667 -0.3323,0.33229 -0.56864,-0.25834 -0.52522,-1.3125 z m 486.07894,-4.41667 c 0,-1.375 0.22698,-1.9375 0.50439,-1.25 0.27741,0.6875 0.27741,1.8125 0,2.5 -0.27741,0.6875 -0.50439,0.125 -0.50439,-1.25 z m -73.96294,-1.5 c 0.0204,-1.65 0.2445,-2.20394 0.49804,-1.23097 0.25354,0.97297 0.23687,2.32297 -0.0371,3 -0.27393,0.67703 -0.48137,-0.11903 -0.46099,-1.76903 z m -412.82499,-10.5 c 0,-5.775 0.16528,-8.1375 0.36728,-5.25 0.202,2.8875 0.202,7.6125 0,10.5 -0.202,2.8875 -0.36728,0.525 -0.36728,-5.25 z m -12.17501,2.5 c 0.0204,-1.65 0.2445,-2.20394 0.49804,-1.23097 0.25354,0.97297 0.23687,2.32297 -0.0371,3 -0.27393,0.67703 -0.48137,-0.11903 -0.46099,-1.76903 z m 410.884,-1.08333 c 0.048,-1.16495 0.28494,-1.4019 0.60416,-0.60417 0.28887,0.72187 0.25335,1.58438 -0.0789,1.91667 -0.33229,0.33229 -0.56864,-0.25834 -0.52522,-1.3125 z m -410,-7 c 0.048,-1.16495 0.28494,-1.4019 0.60416,-0.60417 0.28887,0.72187 0.25335,1.58438 -0.0789,1.91667 -0.3323,0.33229 -0.56864,-0.25834 -0.52522,-1.3125 z m 411.26386,-7.91667 c 0.004,-4.4 0.17944,-6.07561 0.39069,-3.72357 0.21124,2.35204 0.20827,5.95204 -0.007,8 -0.21487,2.04796 -0.38771,0.12357 -0.38408,-4.27643 z m 12.88919,4.5 c 0,-1.925 0.2058,-2.7125 0.45733,-1.75 0.25152,0.9625 0.25152,2.5375 0,3.5 -0.25153,0.9625 -0.45733,0.175 -0.45733,-1.75 z M 8.4715,267.89665 c 0.048,-1.16495 0.28494,-1.4019 0.60416,-0.60417 0.28887,0.72187 0.25335,1.58438 -0.0789,1.91667 -0.3323,0.33229 -0.56864,-0.25834 -0.52522,-1.3125 z m 411,-2 c 0.048,-1.16495 0.28494,-1.4019 0.60416,-0.60417 0.28887,0.72187 0.25335,1.58438 -0.0789,1.91667 -0.33229,0.33229 -0.56864,-0.25834 -0.52522,-1.3125 z m -13,-10 c 0.048,-1.16495 0.28494,-1.4019 0.60416,-0.60417 0.28887,0.72187 0.25335,1.58438 -0.0789,1.91667 -0.33229,0.33229 -0.56864,-0.25834 -0.52522,-1.3125 z m -35.20651,-88.16667 c -1.24387,-1.58606 -1.2085,-1.62143 0.37756,-0.37756 0.9625,0.75485 1.75,1.54235 1.75,1.75 0,0.82304 -0.82119,0.29331 -2.12756,-1.37244 z M 179.64255,86.79065 c 0.9625,-0.25152 2.5375,-0.25152 3.5,0 0.9625,0.25153 0.175,0.45733 -1.75,0.45733 -1.925,0 -2.7125,-0.2058 -1.75,-0.45733 z m 11.5625,-0.99378 c 0.72187,-0.28887 1.58438,-0.25335 1.91667,0.0789 0.33229,0.33229 -0.25834,0.56864 -1.3125,0.52522 -1.16495,-0.048 -1.4019,-0.28494 -0.60417,-0.60416 z M 113.55044,59.47998 c 0,-1.375 0.22698,-1.9375 0.50439,-1.25 0.27741,0.6875 0.27741,1.8125 0,2.5 -0.27741,0.6875 -0.50439,0.125 -0.50439,-1.25 z m 167.34211,-22 c -0.33992,-0.55 -0.14148,-1 0.44098,-1 0.58246,0 1.05902,0.45 1.05902,1 0,0.55 -0.19844,1 -0.44098,1 -0.24254,0 -0.7191,-0.45 -1.05902,-1 z M 86.4715,26.89665 c 0.048,-1.16495 0.28494,-1.4019 0.60416,-0.60417 0.28887,0.72187 0.25335,1.58437 -0.0789,1.91667 -0.3323,0.33229 -0.56864,-0.25834 -0.52522,-1.3125 z m 1,-7 c 0.048,-1.16495 0.28494,-1.4019 0.60416,-0.60417 0.28887,0.72187 0.25335,1.58437 -0.0789,1.91667 -0.3323,0.33229 -0.56864,-0.25834 -0.52522,-1.3125 z m 1.07894,-9.41667 c 0,-1.375 0.22698,-1.9375 0.50439,-1.25 0.27741,0.6875 0.27741,1.8125 0,2.5 -0.27741,0.6875 -0.50439,0.125 -0.50439,-1.25 z m 259,0 c 0,-1.375 0.22698,-1.9375 0.50439,-1.25 0.27741,0.6875 0.27741,1.8125 0,2.5 -0.27741,0.6875 -0.50439,0.125 -0.50439,-1.25 z m -258.90571,-29.5 c 0.0111,-2.2 0.21589,-2.98225 0.45508,-1.73834 0.23919,1.24391 0.23011,3.04391 -0.0202,4 -0.25029,0.95609 -0.446,-0.0617 -0.4349,-2.26166 z m -1,-16 c 0.0111,-2.2 0.21589,-2.98225 0.45508,-1.73834 0.23919,1.24391 0.23011,3.04391 -0.0202,4 -0.25029,0.95609 -0.446,-0.0617 -0.4349,-2.26166 z m 60.1498,2.10516 c -0.29439,-0.76716 -0.38158,-3.12966 -0.19376,-5.25 0.31639,-3.57176 0.37642,-3.46918 0.81664,1.39546 0.48498,5.35935 0.32781,6.33199 -0.62288,3.85454 z m 67.89768,-7.60516 c 0,-3.025 0.18747,-4.2625 0.41659,-2.75 0.22913,1.5125 0.22913,3.9875 0,5.5 -0.22912,1.5125 -0.41659,0.275 -0.41659,-2.75 z m 37.89529,1.5 c 0.0204,-1.65 0.2445,-2.20394 0.49804,-1.23097 0.25354,0.97297 0.23687,2.32297 -0.0371,3 -0.27393,0.67703 -0.48137,-0.11903 -0.46099,-1.76903 z m 26.884,-0.0833 c 0.048,-1.16495 0.28494,-1.4019 0.60416,-0.60417 0.28887,0.72187 0.25335,1.58437 -0.0789,1.91667 -0.33229,0.33229 -0.56864,-0.25834 -0.52522,-1.3125 z m -160.84695,-3.4167 c 0,-1.925 0.2058,-2.7125 0.45733,-1.75 0.25152,0.9625 0.25152,2.5375 0,3.5 -0.25153,0.9625 -0.45733,0.175 -0.45733,-1.75 z m 46.05401,-3.5 c 0.008,-2.75 0.20172,-3.75631 0.43157,-2.23625 0.22986,1.52006 0.22371,3.77006 -0.0136,5 -0.23736,1.22994 -0.42542,-0.0137 -0.41792,-2.76375 z m -61.9366,-5.5 c 0,-4.675 0.17226,-6.5875 0.3828,-4.25 0.21053,2.3375 0.21053,6.1625 0,8.5 -0.21054,2.3375 -0.3828,0.425 -0.3828,-4.25 z m 149.84554,5.5 c 0.0204,-1.65 0.2445,-2.20394 0.49804,-1.23097 0.25354,0.97297 0.23687,2.32297 -0.0371,3 -0.27393,0.67703 -0.48137,-0.11903 -0.46099,-1.76903 z m -57.88508,-4 c 0.006,-3.3 0.1923,-4.52944 0.41486,-2.73209 0.22256,1.79735 0.21797,4.49735 -0.0102,6 -0.22818,1.50265 -0.41027,0.0321 -0.40466,-3.26791 z m -109.01021,-2.5 c 0,-3.025 0.18747,-4.2625 0.41659,-2.75 0.22913,1.5125 0.22913,3.9875 0,5.5 -0.22912,1.5125 -0.41659,0.275 -0.41659,-2.75 z m 77.77929,-5.58333 c 0.048,-1.16495 0.28494,-1.4019 0.60416,-0.60417 0.28887,0.72187 0.25335,1.58437 -0.0789,1.91667 -0.33229,0.33229 -0.56864,-0.25834 -0.52522,-1.3125 z m 32,-4 c 0.048,-1.16495 0.28494,-1.4019 0.60416,-0.60417 0.28887,0.72187 0.25335,1.58437 -0.0789,1.91667 -0.33229,0.33229 -0.56864,-0.25834 -0.52522,-1.3125 z m 150.20706,-6.91667 c 0.008,-2.75 0.20172,-3.75631 0.43157,-2.23625 0.22986,1.52006 0.22371,3.77006 -0.0136,5 -0.23736,1.22994 -0.42542,-0.0137 -0.41792,-2.76375 z m -1.09106,-15 c 0.0204,-1.65 0.2445,-2.20394 0.49804,-1.23097 0.25354,0.97297 0.23687,2.32297 -0.0371,3 -0.27393,0.67703 -0.48137,-0.11903 -0.46099,-1.76903 z m -195.27064,-4.25 -2.42431,-2.75 2.75,2.42431 c 1.5125,1.33338 2.75,2.57088 2.75,2.75 0,0.78428 -0.8098,0.14598 -3.07569,-2.42431 z m -34.92431,0.37244 c 0,-0.20765 0.7875,-0.99515 1.75,-1.75 1.58606,-1.24387 1.62143,-1.2085 0.37756,0.37756 -1.30637,1.66575 -2.12756,2.19548 -2.12756,1.37244 z m 149.43709,-4.87244 -2.93709,-3.25 3.25,2.93709 c 3.02946,2.73778 3.70965,3.56291 2.93709,3.56291 -0.1721,0 -1.6346,-1.4625 -3.25,-3.25 z m 79.64186,-1.33333 c 0.048,-1.16495 0.28494,-1.4019 0.60416,-0.60417 0.28887,0.72187 0.25335,1.58437 -0.0789,1.91667 -0.33229,0.33229 -0.56864,-0.25834 -0.52522,-1.3125 z M 86.64473,-97.02002 c 0.0111,-2.2 0.21589,-2.98225 0.45508,-1.73834 0.23919,1.24391 0.23011,3.04391 -0.0202,4 -0.25029,0.95609 -0.446,-0.0617 -0.4349,-2.26166 z m 42.56032,0.81689 c 0.72187,-0.28887 1.58438,-0.25335 1.91667,0.0789 0.33229,0.33229 -0.25834,0.56864 -1.3125,0.52522 -1.16495,-0.048 -1.4019,-0.28494 -0.60417,-0.60416 z m 6,0 c 0.72187,-0.28887 1.58438,-0.25335 1.91667,0.0789 0.33229,0.33229 -0.25834,0.56864 -1.3125,0.52522 -1.16495,-0.048 -1.4019,-0.28494 -0.60417,-0.60416 z m 208.26645,-5.90022 c 0.048,-1.16495 0.28494,-1.4019 0.60416,-0.60417 0.28887,0.72187 0.25335,1.58437 -0.0789,1.91667 -0.33229,0.33229 -0.56864,-0.25834 -0.52522,-1.3125 z m -255.92106,-6.41667 c 0,-1.375 0.22698,-1.9375 0.50439,-1.25 0.27741,0.6875 0.27741,1.8125 0,2.5 -0.27741,0.6875 -0.50439,0.125 -0.50439,-1.25 z m 0.92106,-8.58333 c 0.048,-1.16495 0.28494,-1.4019 0.60416,-0.60417 0.28887,0.72187 0.25335,1.58437 -0.0789,1.91667 -0.3323,0.33229 -0.56864,-0.25834 -0.52522,-1.3125 z m 101.73355,-104.09978 c 0.72187,-0.28887 1.58438,-0.25335 1.91667,0.0789 0.33229,0.33229 -0.25834,0.56864 -1.3125,0.52522 -1.16495,-0.048 -1.4019,-0.28494 -0.60417,-0.60416 z m 7.9375,-0.97917 c 0.6875,-0.27741 1.8125,-0.27741 2.5,0 0.6875,0.27741 0.125,0.50439 -1.25,0.50439 -1.375,0 -1.9375,-0.22698 -1.25,-0.50439 z m 40.0625,-0.0208 c 0.72187,-0.28887 1.58438,-0.25335 1.91667,0.0789 0.33229,0.3323 -0.25834,0.56864 -1.3125,0.52522 -1.16495,-0.048 -1.4019,-0.28494 -0.60417,-0.60416 z m -23.02898,-1.05529 c 2.90594,-0.20265 7.40594,-0.20052 10,0.005 2.59406,0.20525 0.21648,0.37104 -5.28352,0.36844 -5.5,-0.003 -7.62242,-0.17053 -4.71648,-0.37317 z"
           id="path1065" />
        <path
           style="fill:#94700b"
           d="m 353.20505,622.79687 c 0.72187,-0.28887 1.58438,-0.25335 1.91667,0.0789 0.33229,0.33229 -0.25834,0.56864 -1.3125,0.52522 -1.16495,-0.048 -1.4019,-0.28494 -0.60417,-0.60416 z M -136.33509,456.47998 c 0,-2.475 0.19502,-3.4875 0.43337,-2.25 0.23836,1.2375 0.23836,3.2625 0,4.5 -0.23835,1.2375 -0.43337,0.225 -0.43337,-2.25 z m 464.88553,-5 c 0,-1.375 0.22698,-1.9375 0.50439,-1.25 0.27741,0.6875 0.27741,1.8125 0,2.5 -0.27741,0.6875 -0.50439,0.125 -0.50439,-1.25 z m 0.92106,-15.58333 c 0.048,-1.16495 0.28494,-1.4019 0.60416,-0.60417 0.28887,0.72187 0.25335,1.58438 -0.0789,1.91667 -0.33229,0.33229 -0.56864,-0.25834 -0.52522,-1.3125 z m 122.92105,-49.91667 c 1.29175,-1.375 2.57363,-2.5 2.84863,-2.5 0.275,0 -0.55688,1.125 -1.84863,2.5 -1.29175,1.375 -2.57363,2.5 -2.84863,2.5 -0.275,0 0.55688,-1.125 1.84863,-2.5 z m 9.77643,-3.2335 c 2.35204,-0.21124 5.95204,-0.20827 8,0.007 2.04796,0.21487 0.12357,0.38771 -4.27643,0.38408 -4.4,-0.004 -6.07561,-0.17944 -3.72357,-0.39069 z M -24.79495,362.79687 c 0.72187,-0.28887 1.58437,-0.25335 1.91667,0.0789 0.33229,0.33229 -0.25834,0.56864 -1.3125,0.52522 -1.16495,-0.048 -1.4019,-0.28494 -0.60417,-0.60416 z M 173.64255,55.76373 c 1.5125,-0.22913 3.9875,-0.22913 5.5,0 1.5125,0.22912 0.275,0.41659 -2.75,0.41659 -3.025,0 -4.2625,-0.18747 -2.75,-0.41659 z m 97.25,-17.28375 c 0.99549,-1.1 2.03498,-2 2.30998,-2 0.275,0 -0.31449,0.9 -1.30998,2 -0.99549,1.1 -2.03498,2 -2.30998,2 -0.275,0 0.31449,-0.9 1.30998,-2 z m -151.09501,-9.25 -1.90499,-2.25 2.25,1.90499 c 1.2375,1.04774 2.25,2.06024 2.25,2.25 0,0.80025 -0.80479,0.20945 -2.59501,-1.90499 z m 5,-5 -1.90499,-2.25 2.25,1.90499 c 1.2375,1.04774 2.25,2.06024 2.25,2.25 0,0.80025 -0.80479,0.20945 -2.59501,-1.90499 z M 102.4715,19.89665 c 0.048,-1.16495 0.28494,-1.4019 0.60416,-0.60417 0.28887,0.72187 0.25335,1.58437 -0.0789,1.91667 -0.33229,0.33229 -0.56864,-0.25834 -0.52522,-1.3125 z"
           id="path1063" />
        <path
           style="fill:#6a5108"
           d="m 369.20505,622.79687 c 0.72187,-0.28887 1.58438,-0.25335 1.91667,0.0789 0.33229,0.33229 -0.25834,0.56864 -1.3125,0.52522 -1.16495,-0.048 -1.4019,-0.28494 -0.60417,-0.60416 z m -261.8125,-14.6298 c 0,-0.1721 1.4625,-1.6346 3.25,-3.25 l 3.25,-2.93709 -2.93709,3.25 c -2.73778,3.02946 -3.56291,3.70965 -3.56291,2.93709 z m -5,-10.18709 c 1.29175,-1.375 2.57363,-2.5 2.84863,-2.5 0.275,0 -0.55688,1.125 -1.84863,2.5 -1.29175,1.375 -2.57363,2.5 -2.84863,2.5 -0.275,0 0.55688,-1.125 1.84863,-2.5 z m 327.5,-7.5 c 0.99549,-1.1 2.03498,-2 2.30998,-2 0.275,0 -0.31449,0.9 -1.30998,2 -0.99549,1.1 -2.03498,2 -2.30998,2 -0.275,0 0.31449,-0.9 1.30998,-2 z m 23,-9 c 0.99549,-1.1 2.03498,-2 2.30998,-2 0.275,0 -0.31449,0.9 -1.30998,2 -0.99549,1.1 -2.03498,2 -2.30998,2 -0.275,0 0.31449,-0.9 1.30998,-2 z m -530.6875,-3.68311 c 0.721875,-0.28887 1.584375,-0.25335 1.916667,0.0789 0.332291,0.33229 -0.258334,0.56864 -1.3125,0.52522 -1.164943,-0.048 -1.4019,-0.28494 -0.604167,-0.60416 z m -9,-1 c 0.721875,-0.28887 1.584375,-0.25335 1.916667,0.0789 0.332291,0.33229 -0.258334,0.56864 -1.3125,0.52522 -1.164943,-0.048 -1.4019,-0.28494 -0.604167,-0.60416 z m -9,-1 c 0.721875,-0.28887 1.584375,-0.25335 1.916667,0.0789 0.332291,0.33229 -0.258334,0.56864 -1.3125,0.52522 -1.164943,-0.048 -1.4019,-0.28494 -0.604167,-0.60416 z M 305.4715,556.89665 c 0.048,-1.16495 0.28494,-1.4019 0.60416,-0.60417 0.28887,0.72187 0.25335,1.58438 -0.0789,1.91667 -0.33229,0.33229 -0.56864,-0.25834 -0.52522,-1.3125 z m -438,-65 c 0.048,-1.16495 0.28494,-1.4019 0.60416,-0.60417 0.28888,0.72187 0.25335,1.58438 -0.0789,1.91667 -0.33229,0.33229 -0.56864,-0.25834 -0.52522,-1.3125 z m 460,-28 c 0.048,-1.16495 0.28494,-1.4019 0.60416,-0.60417 0.28887,0.72187 0.25335,1.58438 -0.0789,1.91667 -0.33229,0.33229 -0.56864,-0.25834 -0.52522,-1.3125 z m -463.92105,-1.41667 c 0,-1.375 0.22697,-1.9375 0.50438,-1.25 0.27741,0.6875 0.27741,1.8125 0,2.5 -0.27741,0.6875 -0.50438,0.125 -0.50438,-1.25 z m -0.079,-11.58333 c 0.048,-1.16495 0.28494,-1.4019 0.60416,-0.60417 0.28887,0.72187 0.25335,1.58438 -0.0789,1.91667 -0.33229,0.33229 -0.56864,-0.25834 -0.52522,-1.3125 z m 465.116,-3.91667 c 0.0204,-1.65 0.2445,-2.20394 0.49804,-1.23097 0.25354,0.97297 0.23687,2.32297 -0.0371,3 -0.27393,0.67703 -0.48137,-0.11903 -0.46099,-1.76903 z m 0.96294,-14.5 c 0,-1.375 0.22698,-1.9375 0.50439,-1.25 0.27741,0.6875 0.27741,1.8125 0,2.5 -0.27741,0.6875 -0.50439,0.125 -0.50439,-1.25 z m 0.92106,-10.58333 c 0.048,-1.16495 0.28494,-1.4019 0.60416,-0.60417 0.28887,0.72187 0.25335,1.58438 -0.0789,1.91667 -0.33229,0.33229 -0.56864,-0.25834 -0.52522,-1.3125 z m 44.84536,-21.16667 -2.42431,-2.75 2.75,2.42431 c 1.5125,1.33338 2.75,2.57088 2.75,2.75 0,0.78428 -0.8098,0.14598 -3.07569,-2.42431 z m 127,-16 -2.42431,-2.75 2.75,2.42431 c 1.5125,1.33338 2.75,2.57088 2.75,2.75 0,0.78428 -0.8098,0.14598 -3.07569,-2.42431 z M 456.205,382.79687 c 0.72187,-0.28887 1.58438,-0.25335 1.91667,0.0789 0.33229,0.33229 -0.25834,0.56864 -1.3125,0.52522 -1.16495,-0.048 -1.4019,-0.28494 -0.60417,-0.60416 z m -451.86633,-5.06689 -3.44617,-3.75 3.75,3.44617 c 2.0625,1.89539 3.75,3.58289 3.75,3.75 0,0.76362 -0.84622,0.0442 -4.05383,-3.44617 z m -54.94617,-4.75 c 1.29175,-1.375 2.57363,-2.5 2.84863,-2.5 0.275,0 -0.55688,1.125 -1.84863,2.5 -1.29175,1.375 -2.57363,2.5 -2.84863,2.5 -0.275,0 0.55688,-1.125 1.84863,-2.5 z m 504.92431,-26.25 -2.42431,-2.75 2.75,2.42431 c 1.5125,1.33338 2.75,2.57088 2.75,2.75 0,0.78428 -0.8098,0.14598 -3.07569,-2.42431 z m 5.48068,-8.5 -1.90499,-2.25 2.25,1.90499 c 2.11444,1.79022 2.70524,2.59501 1.90499,2.59501 -0.18976,0 -1.20226,-1.0125 -2.25,-2.25 z M 171.66158,48.78699 c 0.97297,-0.25354 2.32297,-0.23687 3,0.0371 0.67703,0.27393 -0.11903,0.48137 -1.76903,0.46099 -1.65,-0.0204 -2.20394,-0.2445 -1.23097,-0.49804 z m 7,0 c 0.97297,-0.25354 2.32297,-0.23687 3,0.0371 0.67703,0.27393 -0.11903,0.48137 -1.76903,0.46099 -1.65,-0.0204 -2.20394,-0.2445 -1.23097,-0.49804 z m -62.86404,-23.55701 -1.90499,-2.25 2.25,1.90499 c 2.11444,1.79022 2.70524,2.59501 1.90499,2.59501 -0.18976,0 -1.20226,-1.0125 -2.25,-2.25 z M 102.4715,22.89665 c 0.048,-1.16495 0.28494,-1.4019 0.60416,-0.60417 0.28887,0.72187 0.25335,1.58437 -0.0789,1.91667 -0.33229,0.33229 -0.56864,-0.25834 -0.52522,-1.3125 z m 9.116,-2.91667 c 0.0204,-1.65 0.2445,-2.20394 0.49804,-1.23097 0.25354,0.97297 0.23687,2.32297 -0.0371,3 -0.27393,0.67703 -0.48137,-0.11903 -0.46099,-1.76903 z m 170,-3 c 0.0204,-1.65 0.2445,-2.20394 0.49804,-1.23097 0.25354,0.97297 0.23687,2.32297 -0.0371,3 -0.27393,0.67703 -0.48137,-0.11903 -0.46099,-1.76903 z M 106.39255,9.10242 c 0,-0.20765 0.7875,-0.99515 1.75,-1.75 1.58606,-1.24387 1.62143,-1.2085 0.37756,0.37756 -1.30637,1.66575 -2.12756,2.19548 -2.12756,1.37244 z m 117,-74 c 0,-0.20765 0.7875,-0.99515 1.75,-1.75 1.58606,-1.24387 1.62143,-1.2085 0.37756,0.37756 -1.30637,1.66575 -2.12756,2.19548 -2.12756,1.37244 z m -13,-27 c 0,-0.20765 0.7875,-0.99515 1.75,-1.75 1.58606,-1.24387 1.62143,-1.2085 0.37756,0.37756 -1.30637,1.66575 -2.12756,2.19548 -2.12756,1.37244 z"
           id="path1061" />
        <path
           style="fill:#000000"
           d="m 345.39255,632.99352 c -20.56258,-4.63327 -40.78363,-22.50181 -48.0658,-42.47386 l -2.09723,-5.75185 -16.66849,-0.59715 c -9.63683,-0.34525 -24.05091,-1.6966 -34.16848,-3.20337 -32.97746,-4.91121 -48.84841,-4.35955 -88.73748,3.08442 -10.31939,1.92577 -22.16588,3.77015 -26.32555,4.09863 l -7.56302,0.59724 -2.79845,5.34496 c -3.9792,7.60017 -15.61135,18.31658 -24.71191,22.76648 -12.30073,6.01467 -18.09565,7.11896 -37.36359,7.12002 -25.01403,10e-4 -40.95221,-3.99813 -69.48861,-17.4374 -23.45461,-11.046 -31.87705,-13.17371 -71.51139,-18.06545 -13.75,-1.69705 -28.79005,-3.97543 -33.42233,-5.06306 -16.08934,-3.77767 -26.5493,-11.03718 -31.34951,-21.75748 -4.43612,-9.90717 -3.24637,-27.87958 3.03636,-45.86733 3.40263,-9.74189 3.49575,-19.4556 0.38288,-39.93816 -2.53423,-16.67513 -2.6828,-23.89446 -0.65216,-31.69058 2.20197,-8.45394 5.08428,-13.42815 11.37957,-19.63857 6.76348,-6.67229 12.52918,-9.87811 27.13907,-15.08975 19.690136,-7.02386 22.270849,-8.9448 34.864644,-25.95128 4.683847,-6.325 10.426399,-13.54398 12.761227,-16.04218 l 4.245143,-4.54217 -1.001966,-10.45783 C -59.508269,323.38297 -50.89211,282.84864 -33.67025,243.97998 -16.58969,205.43023 10.35737,163.03183 44.6999,120.67267 79.98442,77.15163 93.30475,30.90693 88.3935,-31.02002 c -5.18063,-65.32359 0.36593,-108.09465 17.8771,-137.85505 16.51243,-28.06303 41.68295,-44.13643 80.23062,-51.2337 11.40549,-2.09994 41.02567,-2.97124 52.99997,-1.55904 48.13129,5.67644 79.54314,32.19758 95.37388,80.52454 1.83901,5.61402 4.47827,15.8134 5.86502,22.66528 4.71346,23.28911 5.81489,38.14616 6.63198,89.45797 0.85655,53.78919 0.89334,54.09485 9.01054,74.856 7.73102,19.7734 19.27417,37.4245 47.36226,72.42355 23.1468,28.84198 29.84059,37.82974 41.92173,56.28837 29.91421,45.70555 46.11195,88.16086 49.76305,130.43208 1.92304,22.2642 -0.37565,42.91175 -7.5739,68.03132 -0.47175,1.64627 0.19507,2.37421 3.51775,3.84017 2.25491,0.99487 6.78051,4.29068 10.05688,7.32402 8.18278,7.57581 12.00744,15.68219 16.97436,35.9772 6.26684,25.60652 6.8415,26.8361 20.2975,43.42973 22.84047,28.16634 23.37486,48.63777 1.69728,65.01964 -3.57883,2.70454 -17.98197,10.74586 -32.00697,17.8696 -37.18227,18.88604 -47.45695,26.03673 -62.97647,43.82864 -17.45756,20.01373 -38.69757,34.26703 -60.72415,40.74949 -11.15198,3.28205 -29.36261,4.18274 -39.29938,1.94373 z m 33,-11.54982 c 17.98629,-4.27918 37.57465,-16.29666 53.01511,-32.52485 26.54904,-27.90348 34.31904,-33.60185 69.53785,-50.99781 12.67913,-6.26272 25.73288,-13.11888 29.00832,-15.2359 7.51168,-4.85503 14.18864,-12.35519 15.04022,-16.89453 1.93691,-10.32457 -4.16702,-23.30706 -19.30789,-41.06613 -8.66134,-10.15908 -11.53126,-16.57317 -16.74266,-37.41873 -7.37222,-29.48881 -10.83171,-35.3616 -24.55095,-41.67745 -4.56528,-2.10169 -7.41525,-2.60588 -16.76953,-2.96674 l -11.26954,-0.43475 -5.23046,4.9314 c -19.32609,18.22105 -46.04735,27.60027 -62.52695,21.94707 -7.35243,-2.52219 -15.9235,-10.66085 -20.60052,-19.56125 -3.69598,-7.03346 -7.603,-19.99555 -7.603,-25.22401 0,-3.6255 -1.61937,-3.62279 -6.63582,0.0111 -14.80484,10.72457 -21.71715,32.28355 -24.39209,76.07712 -1.75353,28.70846 -3.30577,37.63303 -11.54467,66.37602 -10.7456,37.48805 -12.72416,47.92653 -12.16793,64.19571 0.48819,14.27916 1.09112,16.354 7.87256,27.09166 7.25246,11.48346 19.2583,20.39911 32.14246,23.8693 7.85166,2.11474 22.69473,1.88922 32.72549,-0.49724 z m -302.5,-9.46812 c 25.41551,-5.33605 40.5,-23.95338 40.5,-49.98522 0,-16.60889 -8.87991,-32.65248 -39.08048,-70.60786 -20.28482,-25.49348 -23.03303,-29.73011 -42.42518,-65.40252 -8.67071,-15.95 -17.35081,-31.65201 -19.28912,-34.89336 -5.55148,-9.28348 -16.69119,-19.74911 -25.82724,-24.2644 -7.29167,-3.60373 -8.33615,-3.84179 -16.82612,-3.83507 -7.41716,0.006 -9.80201,0.40702 -13.20571,2.22127 -6.11517,3.25953 -12.94467,10.36133 -22.891588,23.80429 -14.698967,19.86522 -18.338723,22.58509 -41.445152,30.97064 -15.11863,5.4867 -21.8255,9.73344 -26.45758,16.75277 -6.31355,9.56738 -6.77935,16.22949 -2.96885,42.46197 2.94209,20.25408 2.76816,26.95908 -0.98564,37.99571 -4.27365,12.56504 -5.8767,21.74205 -5.39641,30.89285 0.38407,7.31748 0.82705,8.96752 3.37063,12.55522 5.731,8.08353 17.35916,12.37104 41.541251,15.31699 33.011205,4.02153 37.943192,4.70917 47.051549,6.56014 13.46569,2.73644 25.56301,6.86254 38.9175,13.27382 19.77072,9.49161 30.94808,13.39903 46.41814,16.22703 9.72644,1.77804 30.43235,1.75453 39,-0.0443 z m 152.95207,-67.47865 c 22.78221,-4.90023 50.32304,-16.46604 68.53133,-28.77984 9.66291,-6.53478 8.80144,-4.81419 15.63989,-31.23711 2.99091,-11.5565 3.70026,-16.59521 4.92726,-35 1.73181,-25.97678 2.89816,-36.37228 5.54509,-49.42253 5.01819,-24.74134 15.29352,-40.74353 31.0478,-48.352 l 5.64343,-2.72547 1.21531,-6.22621 c 1.68223,-8.61837 6.30783,-15.96828 12.42185,-19.73788 4.76239,-2.93625 5.30403,-3.03384 16.5,-2.97284 12.97443,0.0707 20.83176,2.10686 37.05758,9.6032 25.38672,11.7287 37.5061,24.67789 35.4034,37.82746 l -0.64063,4.00627 h 4.05586 4.05585 l 0.6856,-5.48742 c 2.2411,-17.93713 -10.12779,-32.24482 -41.17376,-47.62767 -5.97736,-2.9617 -10.95832,-5.4003 -11.06879,-5.41911 -0.11048,-0.0188 0.50452,-4.06881 1.36666,-9 2.21224,-12.65341 1.30779,-34.28073 -2.02684,-48.4658 -6.18125,-26.29425 -18.89667,-52.79837 -36.46118,-76 -8.13681,-10.74823 -23.03854,-25.99066 -24.76282,-25.32899 -2.86234,1.09838 -1.24338,4.42855 5.85168,12.03677 17.60275,18.87591 29.86158,39.39807 37.74455,63.1871 5.53395,16.70021 7.35791,29.17113 6.71973,45.94456 -0.48847,12.83845 -3.31321,28.06676 -5.65027,30.46085 -0.42968,0.44016 -4.66,0.23947 -9.40072,-0.44596 l -8.6195,-1.24625 -1.0979,-5.55404 c -1.91194,-9.67211 -6.7313,-27.15346 -10.76665,-39.05404 -6.46872,-19.07682 -12.60201,-33.06905 -28.05347,-64 -8.10515,-16.225 -18.273,-37.825 -22.59523,-48 -14.28514,-33.62881 -30.13944,-77.78542 -36.6228,-102 -1.25171,-4.675 -2.4093,-8.67503 -2.57241,-8.88896 -0.16311,-0.21394 -2.36046,1.90657 -4.88299,4.71224 -6.38713,7.10403 -16.72478,13.67895 -29.28465,18.62556 -5.87638,2.31437 -15.75765,7.39768 -21.95838,11.29625 -19.38006,12.18477 -31.57802,15.98724 -48.13191,15.00417 -14.60914,-0.86758 -23.298,-5.01275 -38.09404,-18.17342 -6.81155,-6.05869 -23.83377,-18.17167 -24.44596,-17.3957 -0.13879,0.17592 -0.99609,5.94486 -1.9051,12.81986 -4.51049,34.1134 -17.26845,72.47508 -42.40271,127.5 -5.77826,12.65 -13.88559,30.425 -18.01629,39.5 -15.13633,33.25403 -24.12705,67.26152 -26.79001,101.33351 l -0.6904,8.8335 -1.92684,-2.8335 c -3.37514,-4.9633 -8.03532,-14.61964 -10.3809,-21.5102 -3.70652,-10.88856 -4.76366,-20.2568 -4.1815,-37.05592 0.88616,-25.57203 6.31371,-42.79219 25.86286,-82.05594 10.68105,-21.45251 13.48235,-28.71145 11.08003,-28.71145 -1.41797,0 -18.06387,29.0248 -26.66803,46.5 -16.65677,33.83019 -23.53515,58.25968 -23.53515,83.58825 0,13.77753 1.6663,23.51786 5.9024,34.50243 6.43635,16.69004 19.81891,32.27228 37.59962,43.77987 25.31101,16.38116 38.60362,26.59738 51.49798,39.57947 25.19899,25.37042 33.99218,48.88291 23.45012,62.70426 -3.13681,4.11257 -11.3997,8.04604 -18.70012,8.90199 -3.1625,0.3708 -5.75,0.82661 -5.75,1.01292 0,0.66963 22.08925,29.9976 24.80285,32.93081 3.23798,3.50003 21.51121,13.1576 31.88927,16.85376 19.44832,6.92655 31.03722,8.67407 54.30788,8.18923 13.98405,-0.29136 20.92935,-0.90798 28.45207,-2.52604 z M 196.68936,78.99089 c 7.0242,-1.82957 15.12926,-5.84338 28.20319,-13.96686 5.5,-3.41742 14.42204,-7.91118 19.82675,-9.98613 22.52115,-8.64623 36.90595,-23.23693 37.02793,-37.55792 0.10831,-12.71662 -8.18334,-19.61023 -34.85468,-28.97787 -6.6,-2.31808 -14.925,-5.82789 -18.5,-7.79958 -26.06859,-14.37735 -33.36251,-16.71173 -50.06647,-16.0235 -10.57235,0.4356 -11.21763,0.59698 -20.17758,5.04602 -6.58184,3.26819 -11.56721,6.72033 -17.25595,11.94893 -4.4,4.0441 -13.93627,11.75859 -21.19171,17.14331 -18.08063,13.41879 -20.47096,18.58423 -14.4207,31.16269 3.53151,7.34198 10.67436,14.37773 22.11241,21.78083 4.675,3.02582 12.325,8.91563 17,13.08847 8.91692,7.95912 17.09691,12.98756 23.61774,14.5184 6.26895,1.4717 22.39568,1.25982 28.67907,-0.37679 z M 160.89255,53.57591 c -13.99502,-3.826 -24.14153,-9.85194 -38.99081,-23.15634 -8.16588,-7.31633 -9.42554,-8.87215 -9.46438,-11.68959 -0.028,-2.03383 0.44489,-3.25 1.26383,-3.25 0.71974,0 5.33224,3.64219 10.25,8.09375 16.45579,14.89584 27.69649,21.58266 41.02892,24.40713 8.70045,1.84318 13.348,1.86174 22.57447,0.0901 13.44116,-2.58087 25.45166,-7.98472 49.65872,-22.34278 13.57804,-8.05358 22.37601,-12.2482 25.68998,-12.2482 2.2248,0 1.99118,5.90994 -0.26073,6.59563 -4.27854,1.30278 -13.73284,6.21327 -25.83198,13.41692 -17.63837,10.50163 -23.69569,13.46012 -36.24653,17.70339 -13.6214,4.60521 -28.30884,5.48634 -39.67149,2.37999 z m -35.8938,-65.76487 c 2.69159,-2.01791 5.05978,-3.7964 5.26265,-3.95218 0.20287,-0.15579 -1.20522,-2.1222 -3.1291,-4.36982 -8.92094,-10.42212 -9.02884,-33.15799 -0.19416,-40.91494 4.20564,-3.69261 6.05759,-3.83612 10.53824,-0.81661 5.51262,3.71495 9.19249,12.15619 9.72538,22.30898 0.24523,4.67233 0.72598,8.34408 1.06833,8.15944 0.34235,-0.18463 3.77246,-1.8105 7.62246,-3.61304 3.85,-1.80254 7.675,-3.64265 8.5,-4.08913 1.19042,-0.64424 1.44609,-2.62074 1.23881,-9.57662 -0.96883,-32.51105 -21.94453,-54.89292 -42.05319,-44.87235 -19.07275,9.50435 -26.08707,44.81741 -14.13715,71.17238 2.83759,6.25816 8.37995,14.23283 9.89176,14.23283 0.42469,0 2.97438,-1.65102 5.66597,-3.66894 z m 146.09222,-0.58789 c 6.75448,-9.96438 10.38485,-22.58778 10.43297,-36.27723 0.0823,-23.41817 -10.71698,-43.75328 -27.63139,-52.02997 -5.35606,-2.62087 -7.01957,-2.93597 -15.5,-2.93597 -8.37232,0 -10.17437,0.33117 -15.18119,2.78988 -14.52441,7.13256 -25.14554,24.66153 -27.27746,45.01835 -0.82499,7.87752 0.12332,16.67676 1.80249,16.72494 0.63589,0.0182 5.04455,1.51288 9.79703,3.32139 l 8.64086,3.28822 0.41513,-9.57139 c 0.61219,-14.11515 5.80997,-23.95532 14.65673,-27.74733 16.64457,-7.13443 29.10576,24.22643 18.2858,46.01957 -1.68109,3.386 -2.73768,6.28354 -2.34796,6.43896 0.38971,0.15543 4.98357,2.02175 10.20857,4.14737 5.225,2.12562 9.95,3.90788 10.5,3.96057 0.55,0.0527 1.98929,-1.36362 3.19842,-3.14736 z"
           id="path1059" />
      </g>
      <path
         style="fill:#ffffff;stroke:#ffffff;stroke-width:2.20971"
         d="M 94.354468,411.07984 C 68.455049,402.68752 57.09948,395.24211 43.66863,377.84708 33.386577,364.53025 32.150716,361.97218 35.402874,360.73812 c 2.103143,-0.79803 6.984034,-2.6292 10.846428,-4.0692 10.572055,-3.94157 14.893437,-16.11971 10.683657,-30.10774 -7.206601,-23.94573 -26.820795,-44.85495 -70.404218,-75.05265 -24.741028,-17.14234 -34.838565,-27.69779 -43.147233,-45.10387 -5.298719,-11.10044 -5.789386,-14.45076 -5.663365,-38.6699 0.118696,-22.81131 0.966425,-28.91183 6.066835,-43.65888 6.256991,-18.09112 29.834227,-66.879424 31.510034,-65.203617 0.541224,0.541224 -3.360359,10.341161 -8.670183,21.777641 -12.305032,26.502996 -16.273496,38.858396 -19.118998,59.524996 -2.4008,17.43679 -1.894202,26.61526 2.336116,42.32547 3.249478,12.06764 12.561046,30.53342 15.396805,30.53342 1.194867,0 2.192181,-4.22607 2.216256,-9.39126 0.150857,-32.36602 9.965444,-65.0641 39.6298791,-132.030096 C 37.454872,3.053707 46.570989,-23.882041 54.478322,-68.422761 c 0.619812,-3.4913 1.455163,-6.676051 1.856338,-7.077225 0.401173,-0.401174 8.151258,5.184638 17.222408,12.412913 23.064855,18.379053 28.783412,20.83111 48.533772,20.810756 16.35864,-0.01679 17.00118,-0.239665 49.71845,-17.240532 18.2301,-9.472897 36.72032,-20.061496 41.08938,-23.530219 l 7.94377,-6.306769 6.03823,20.268574 c 10.18282,34.180744 29.46224,82.153425 52.28411,130.097669 21.86492,45.933834 34.37293,78.031834 39.68969,101.851364 1.5722,7.04369 3.43594,13.162 4.14163,13.59627 0.70569,0.43427 5.23659,1.12907 10.06865,1.54401 l 8.78558,0.75444 3.7265,-14.25209 c 8.16624,-31.23198 -3.56826,-77.093097 -28.45995,-111.227915 -4.2513,-5.829982 -7.25286,-11.076779 -6.67009,-11.659545 1.62705,-1.627049 18.35114,21.382918 27.06893,37.242965 15.38691,27.993055 19.4834,43.542135 20.15683,76.509555 l 0.60509,29.62117 12.83184,6.85671 c 17.38634,9.29041 28.45493,18.02125 33.78978,26.65321 5.37085,8.69024 6.08435,23.25745 1.13915,23.25745 -2.30859,0 -3.31456,-2.32392 -3.31456,-7.65708 0,-11.18698 -10.2829,-21.60459 -31.7272,-32.14275 -18.99618,-9.33514 -37.75417,-14.04849 -47.49523,-11.93424 -14.51092,3.14952 -17.30775,5.39206 -21.28937,17.07015 -3.15012,9.23928 -5.75351,12.60641 -13.4252,17.36356 -19.00853,11.78705 -27.59763,35.45562 -31.93833,88.01104 -2.33885,28.31777 -6.10627,49.0356 -11.33703,62.34483 -4.13396,10.51853 -37.0727,28.32383 -68.51721,37.03755 -23.41661,6.48907 -61.32223,6.13442 -82.639812,-0.77322 z"
         id="path1093" />
      <path
         style="fill:#ffffff;stroke:#ffffff;stroke-width:2.20971"
         d="m 197.32195,-144.00874 c -4.19814,-1.81844 -7.88299,-3.55627 -8.18855,-3.86183 -0.30557,-0.30557 0.96912,-4.98104 2.83264,-10.38994 4.00259,-11.61759 2.6667,-24.48255 -3.6148,-34.81165 -3.50717,-5.76708 -5.74391,-7.10958 -11.84525,-7.10958 -4.13692,0 -9.71,1.77202 -12.38464,3.93781 -4.83956,3.91884 -12.10908,25.77864 -9.80989,29.49882 1.58952,2.57189 -1.40622,2.41676 -9.79379,-0.50716 -5.7253,-1.99585 -7.00222,-3.66059 -7.20346,-9.39126 -0.43369,-12.35038 0.53749,-17.81776 4.96131,-27.9301 8.07886,-18.46737 19.2842,-26.54403 36.82648,-26.54403 14.09256,0 26.50081,8.63575 33.84608,23.55581 7.19232,14.60934 7.55189,43.90056 0.69928,56.96322 -5.46843,10.42406 -6.50641,10.84305 -16.32541,6.58989 z"
         id="path1095" />
      <path
         style="fill:#ffffff;stroke:#ffffff;stroke-width:2.20971"
         d="m 51.086888,-151.01572 c -6.800531,-13.9769 -8.231372,-36.93598 -3.133761,-50.28388 4.296651,-11.25062 16.739725,-23.18893 24.169383,-23.18893 14.114739,0 28.84811,19.72026 31.38792,42.01197 l 1.38783,12.1809 -7.840726,3.73898 -7.840725,3.73898 -2.501863,-12.05141 c -2.830857,-13.63617 -6.734359,-18.6835 -14.449444,-18.6835 -11.944574,0 -17.95174,27.11853 -9.025053,40.74238 3.070151,4.68564 3.342361,6.63322 1.275238,9.12395 -4.545201,5.47663 -8.157136,3.50524 -13.428799,-7.32944 z"
         id="path1097" />
    </g>
  </g>
</svg>
